<svg xmlns="http://www.w3.org/2000/svg" width="256" height="256"><path fill-opacity=".016" d="M0 128.004v128.004l128.25-.254 128.25-.254.254-127.75L257.008 0H0v128.004m.485.496c0 70.4.119 99.053.265 63.672.146-35.38.146-92.98 0-128C.604 29.153.485 58.1.485 128.5" fill="#1976D2" fill-rule="evenodd"/><path fill-opacity=".39" d="M13 128v128h230V0H13v128m134.655-55.322c-.373.374-.399 2.171-.057 3.994.826 4.401-.093 7.68-3.045 10.865-2.443 2.636-2.461 5.463-.035 5.463 2 0 6.285-5.628 7.423-9.75 1.709-6.188-1.285-13.572-4.286-10.572m-40.091 12.615c.376.986.935 1.541 1.243 1.233.308-.307.001-1.114-.683-1.793-.988-.98-1.102-.865-.56.56M86 98.804c0 1.629.997 2.244 5.049 3.113 6.671 1.431 6.951 1.398 6.951-.81 0-2.185-1.015-2.687-7.372-3.64-4.212-.632-4.628-.512-4.628 1.337m78 .291c-6.212.923-10.982 3.073-15.374 6.928-5.709 5.013-8.123 10.977-4.443 10.977.586 0 2.864-2.044 5.063-4.542 6.887-7.825 15.35-10.714 24.765-8.455 3.819.916 5.442.944 6.277.109 3.091-3.091-7.431-6.333-16.288-5.017M90.244 124.75c-3.385 8.662-10.942 27.9-16.793 42.75-5.85 14.85-11.251 28.69-12.002 30.756l-1.365 3.757 9.708-5.109c5.339-2.809 22.234-11.624 37.544-19.587 15.311-7.963 30.892-16.136 34.627-18.163l6.79-3.684-1.814-4.618c-1.829-4.658-7.715-14.852-8.574-14.852-1.781 0-6.703 3.576-8.917 6.479-2.204 2.889-2.977 3.308-4.551 2.466-1.044-.559-1.897-1.46-1.897-2.003 0-1.572 7.983-9.802 10.186-10.501 1.909-.606 1.873-.77-.779-3.538-3.058-3.192-4.407-3.649-4.407-1.493 0 2.004-7.775 11.59-9.401 11.59-.745 0-1.913-.673-2.596-1.496-1.028-1.24-.612-2.195 2.422-5.553 3.342-3.698 5.575-7.691 5.575-9.967 0-1.432-12.53-8.024-20.156-10.604-3.869-1.309-7.128-2.38-7.24-2.38-.112 0-2.974 7.088-6.36 15.75" fill="#1976D2" fill-rule="evenodd"/><path fill-opacity=".307" d="M13 28.155c0 27.817.023 28.134 1.943 26.397 1.872-1.695 2.352-1.545 13.118 4.095 6.146 3.219 11.406 6.446 11.69 7.17.954 2.442-1.359 3.486-3.956 1.784-2.32-1.52-2.55-1.448-5.655 1.755-2.956 3.049-3.13 3.571-2.015 6.018.969 2.127.961 2.933-.039 3.903-1.629 1.583-2.689.181-9.653-12.777l-5.374-10-.03 99.75L13 256h53c46.444 0 53-.186 53-1.5 0-.825.45-1.5 1-1.5s1 .675 1 1.5c0 1.111 1.167 1.5 4.5 1.5 3.439 0 4.5-.373 4.5-1.583 0-.871.563-1.377 1.25-1.125.688.252 1.137.964 1 1.583-.183.823 14.657 1.125 55.25 1.125H243v-97.122c0-87.046-.159-96.991-1.529-95.854-1.269 1.054-1.955.87-4.027-1.077l-2.498-2.346-7.916 7.869c-6.92 6.88-8.119 7.701-9.531 6.529-1.438-1.193-.724-2.236 6.482-9.48 8.049-8.091 8.085-8.15 6.058-9.984-1.122-1.015-2.039-2.424-2.039-3.131 0-3.313 2.699-2.153 8.601 3.696L243 61.442V0h-51.469c-43.364 0-51.385.217-50.938 1.381.677 1.766-5.489 4.123-6.955 2.657-.65-.65.182-1.495 2.437-2.474C139.153.229 133.1.074 76.25.039L13 0v28.155m96.081-19.08c-8.197 1.074-9.188 1.482-8.424 3.472.47 1.225 1.412 1.475 3.843 1.019l3.22-.604.666 6.769C109.894 35.049 110.121 36 112.266 36c1.913 0 1.975-.419 1.301-8.729-.39-4.8-.952-9.945-1.249-11.433-.493-2.464-.215-2.767 3.12-3.392 2.634-.494 3.575-1.142 3.351-2.305-.385-1.996-1.598-2.129-9.708-1.066m18.542 3.057c-.294 2.402-.793 8.493-1.109 13.535l-.573 9.167 6.385.684c7.678.823 10.174.447 10.174-1.532 0-1.108-1.464-1.562-5.75-1.786l-5.75-.3v-3.95c0-3.835.1-3.95 3.441-3.95 1.893 0 3.705-.427 4.028-.95.736-1.191-2.623-3.05-5.51-3.05-1.571 0-2.005-.439-1.566-1.582.334-.87.607-2.692.607-4.049 0-2.425.104-2.457 6-1.789 5.667.641 6 .56 6-1.451 0-1.836-.584-2.131-4.25-2.14-2.338-.006-5.902-.284-7.921-.618l-3.671-.607-.535 4.368m-43.795 1.681c-3.119.928-5.9 1.918-6.179 2.199-.572.578 5.797 23.768 6.805 24.775.797.797 13.637-2.478 14.98-3.821 2.172-2.172-.996-2.901-6.408-1.473-2.988.788-5.586 1.281-5.772 1.094-.187-.187-.594-1.909-.906-3.827-.523-3.224-.323-3.573 2.633-4.604 1.884-.656 3.008-1.637 2.734-2.385-.495-1.352-.744-1.373-4.851-.409-2.154.506-2.745.21-3.236-1.622-1.295-4.829-.803-5.547 4.939-7.217 3.379-.982 5.412-2.091 5.172-2.821-.592-1.8-3.598-1.766-9.911.111m77.706 11.509C157.468 38.348 157.281 40 159.872 40c1.401 0 2.25-1.321 3.373-5.25.826-2.888 1.904-5.172 2.397-5.077.492.095 2.124.481 3.627.858 3.953.992 3.713-2.293-.269-3.681-1.65-.575-3-1.159-3-1.299 0-.139.494-1.67 1.098-3.402 1.24-3.556 2.008-3.729 7.686-1.725 4.097 1.445 5.216 1.231 5.216-.999C180 18.277 169.23 14 166.34 14c-.745 0-2.733 4.683-4.806 11.322M58.66 23.259c-1.615 1.181-1.625 1.949-.162 12.25 2.163 15.23 2.289 15.68 4.288 15.285 1.208-.24 1.714-1.324 1.714-3.675 0-2.93.463-3.521 3.8-4.855 3.566-1.424 3.936-1.395 6 .482 2.307 2.097 4.7 1.993 4.7-.203C79 41.221 62.179 22 61.022 22c-.352 0-1.415.567-2.362 1.259m129.576-.009C187.131 24.619 177 44.653 177 45.469c0 .278 3.108 2.071 6.906 3.984 5.748 2.895 7.099 3.246 8.051 2.099.919-1.108.15-1.938-3.905-4.216-2.778-1.56-5.05-3.196-5.051-3.636-.001-.439.692-2.14 1.539-3.778 1.454-2.812 1.663-2.893 3.723-1.45 1.2.84 2.757 1.528 3.46 1.528 2.245 0 1.368-3.002-1.223-4.182-2.921-1.331-3.018-1.916-.973-5.871l1.528-2.953 5.01 2.539c4.703 2.383 6.935 2.53 6.935.457 0-.796-11.906-7.99-13.224-7.99-.292 0-.985.563-1.54 1.25M62.493 33.982c.351 3.015.838 5.682 1.082 5.927.245.244 1.765-.198 3.379-.982l2.933-1.427-4.015-4.5-4.016-4.5.637 5.482m-27.245 3.245C32.362 39.002 30 40.999 30 41.664 30 43.203 43.929 63 45.012 63c.445 0 3.099-1.81 5.898-4.023C54.668 56.006 56 54.28 56 52.381 56 48.564 52.365 44 49.325 44c-1.892 0-2.386-.399-1.939-1.563C48.518 39.488 44.472 34 41.166 34c-.368 0-3.031 1.452-5.918 3.227m171.309 1.996c-2.06 2.94-1.964 5.059.443 9.777 3.367 6.601 2.383 9.815-2.621 8.559-1.598-.401-2.889-1.723-3.559-3.645-.68-1.951-1.624-2.906-2.674-2.704-2.914.562-2.404 3.732 1.176 7.312 4.294 4.294 9.14 4.744 12.504 1.164 2.753-2.931 2.754-6.439.003-12.101-1.786-3.676-1.945-4.74-.899-6 1.117-1.347 1.607-1.359 4.049-.096 1.528.791 3.044 2.129 3.368 2.974.325.845 1.279 1.537 2.122 1.537 2.587 0 1.7-3.68-1.546-6.411-4.055-3.412-10.107-3.592-12.366-.366M36.719 40.759c-1.459 1.612-1.44 1.96.238 4.184 1.775 2.353 1.909 2.375 4.437.719 2.834-1.857 3.28-3.588 1.406-5.462-1.714-1.714-4.234-1.482-6.081.559m6.366 7.991l-2.137 1.75 2.571 3.763c2.549 3.732 2.591 3.748 4.994 2 2.619-1.905 3.088-4.271 1.452-7.329-1.287-2.405-4.077-2.48-6.88-.184m-21.534 15c1.508 2.612 2.898 4.935 3.089 5.161.475.561 4.36-3.024 4.36-4.024C29 64.054 20.902 59 19.567 59c-.416 0 .477 2.138 1.984 4.75m125.885 13c.629 4.782.343 5.549-4.649 12.472-.921 1.278-.951 2.014-.115 2.85 1.898 1.898 5.194.012 7.825-4.476C154.443 80.862 153.519 72 148.871 72c-1.877 0-2.004.419-1.435 4.75m21.801-.441c-1.801 2.358-5.404 12.587-5.06 14.369.746 3.877 3.172 1.568 5.949-5.662 1.581-4.116 2.874-7.78 2.874-8.143 0-1.3-2.872-1.73-3.763-.564m-67.728.677c-.664 1.074 3.716 9.126 5.992 11.015 1.521 1.262 3.499.571 3.499-1.222 0-.607-1.397-3.281-3.104-5.941-2.989-4.658-5.102-5.932-6.387-3.852M85.996 97.505c-2.004 2.414.606 4.424 6.679 5.143 7.884.934 8.527-3.637.718-5.102-1.944-.365-4.106-.882-4.804-1.15-.698-.268-1.865.231-2.593 1.109m72.504 2.276c-5.519 1.829-16.5 11.512-16.5 14.549 0 3.703 3.115 3.001 7.401-1.668 6.29-6.85 11.85-8.957 22.482-8.518 8.024.332 8.617.221 8.617-1.612 0-4.105-13.007-5.732-22-2.751M94.907 111.75c-.574 1.513-8.705 22.245-18.07 46.072s-16.811 43.537-16.549 43.8c.263.262 3.343-1.05 6.845-2.917 6.024-3.212 16.427-8.643 46.367-24.209 35.367-18.387 35.62-18.538 34.906-20.848-.953-3.08-5.336-11.685-7.552-14.828-1.082-1.533-1.481-2.933-.933-3.271.936-.578 12.124 1.442 19.072 3.444 6.542 1.885 12.233 1.25 17.24-1.926 4.742-3.007 7.328-6.351 6.254-8.088-1.032-1.67-3.036-1.088-5.563 1.616-3.023 3.236-7.104 5.405-10.17 5.405-1.289 0-6.824-1.168-12.299-2.595-6.553-1.708-11.455-2.428-14.345-2.107-3.986.443-4.714.165-7.894-3.016l-3.504-3.503-1.263 3.005c-.695 1.653-2.944 4.865-4.997 7.138-3.523 3.899-3.838 4.039-5.564 2.477-1.765-1.597-1.744-1.724.569-3.544 2.574-2.024 5.923-7.056 6.938-10.421.528-1.75-.489-2.698-6.636-6.185-6.505-3.69-17.973-8.249-20.752-8.249-.581 0-1.526 1.237-2.1 2.75M174 150.889c0 1.479 1.42 2.273 6.541 3.659 4.654 1.26 6.849 1.462 7.612.699 1.719-1.719.184-3.007-5.575-4.681-7.012-2.039-8.578-1.98-8.578.323m-12.956 8.611c-.026 3.055 1.083 6.5 2.092 6.5.956 0 .163-4.478-1.241-7-.669-1.202-.838-1.103-.851.5M14 179.5c0 .825.45 1.5 1 1.5s1-.675 1-1.5-.45-1.5-1-1.5-1 .675-1 1.5m221 0c0 .917.484 1.505 1.075 1.308.591-.197 1.075-.786 1.075-1.308s-.484-1.111-1.075-1.308c-.591-.197-1.075.391-1.075 1.308M18 190c0 .55.675 1 1.5 1s1.5-.45 1.5-1-.675-1-1.5-1-1.5.45-1.5 1m212 0c0 .55.675 1 1.5 1s1.5-.45 1.5-1-.675-1-1.5-1-1.5.45-1.5 1m-205.361 8.694c-1.126 1.126-.685 2.306.861 2.306.825 0 1.5-.423 1.5-.941 0-1.261-1.562-2.164-2.361-1.365m200 0c-1.126 1.126-.685 2.306.861 2.306.825 0 1.5-.423 1.5-.941 0-1.261-1.562-2.164-2.361-1.365M31 209.5c0 .825.45 1.5 1 1.5s1-.675 1-1.5-.45-1.5-1-1.5-1 .675-1 1.5m187-.5c0 .55.702 1 1.559 1s1.281-.45.941-1c-.34-.55-1.041-1-1.559-1s-.941.45-.941 1m-179.361 7.694c-1.126 1.126-.685 2.306.861 2.306.825 0 1.5-.423 1.5-.941 0-1.261-1.562-2.164-2.361-1.365m172.055-.055c-.799.799.104 2.361 1.365 2.361.518 0 .941-.675.941-1.5 0-1.546-1.18-1.987-2.306-.861m-164 8c-.799.799.104 2.361 1.365 2.361.518 0 .941-.675.941-1.5 0-1.546-1.18-1.987-2.306-.861m155.498.436c.197.591.786 1.075 1.308 1.075s1.111-.484 1.308-1.075c.197-.591-.391-1.075-1.308-1.075s-1.505.484-1.308 1.075m-146.498 6.564c-.799.799.104 2.361 1.365 2.361.518 0 .941-.675.941-1.5 0-1.546-1.18-1.987-2.306-.861m137.849.292c-.683 1.105.894 2.299 1.818 1.375.95-.951.773-2.306-.302-2.306-.518 0-1.2.419-1.516.931M65 238.5c0 .917.484 1.505 1.075 1.308.591-.197 1.075-.786 1.075-1.308s-.484-1.111-1.075-1.308c-.591-.197-1.075.391-1.075 1.308m119 0c0 .917.484 1.505 1.075 1.308.591-.197 1.075-.786 1.075-1.308s-.484-1.111-1.075-1.308c-.591-.197-1.075.391-1.075 1.308m-108.531 4.55c-.95 1.538.351 2.53 1.635 1.246.718-.718.735-1.277.052-1.699-.56-.346-1.319-.142-1.687.453m98.531.45c0 .825.45 1.5 1 1.5s1-.675 1-1.5-.45-1.5-1-1.5-1 .675-1 1.5m-10.361 3.194c-1.126 1.126-.685 2.306.861 2.306.825 0 1.5-.423 1.5-.941 0-1.261-1.562-2.164-2.361-1.365M85 248c0 .55.675 1 1.5 1s1.5-.45 1.5-1-.675-1-1.5-1-1.5.45-1.5 1m11.192 3.075c.197.591.785 1.075 1.308 1.075s1.111-.484 1.308-1.075c.197-.591-.391-1.075-1.308-1.075s-1.505.484-1.308 1.075m56 0c.197.591.786 1.075 1.308 1.075s1.111-.484 1.308-1.075c.197-.591-.391-1.075-1.308-1.075s-1.505.484-1.308 1.075m-45 2c.197.591.785 1.075 1.308 1.075s1.111-.484 1.308-1.075c.197-.591-.391-1.075-1.308-1.075s-1.505.484-1.308 1.075m34 0c.197.591.786 1.075 1.308 1.075s1.111-.484 1.308-1.075c.197-.591-.391-1.075-1.308-1.075s-1.505.484-1.308 1.075" fill="#1976D2" fill-rule="evenodd"/><path fill-opacity=".576" d="M13 27.508c0 27.429.006 27.505 2.039 26.25 1.783-1.1 3.355-.579 12.521 4.147 13.035 6.721 13.715 7.216 12.887 9.371-.777 2.025-2.705 2.205-5.427.505-1.675-1.047-2.377-.813-4.939 1.641-2.863 2.744-2.925 2.98-1.493 5.749C30.284 78.449 29.759 80 26.955 80c-1.338 0-2.821-1.755-4.859-5.75A426.257 426.257 0 0016.099 63l-3.063-5.5-.018 60.639c-.017 57.144.083 60.631 1.732 60.5.962-.076 1.75.536 1.75 1.361s-.787 1.438-1.75 1.361c-1.638-.13-1.75 2.255-1.75 37.25V256h52.383c51.579 0 52.392-.031 52.908-2.004.358-1.371 1.046-1.804 2.174-1.371.907.348 1.413 1.25 1.124 2.004-.398 1.037.577 1.371 4.001 1.371 2.491 0 4.281-.399 3.98-.887-.301-.487.145-1.461.992-2.164 1.295-1.075 1.629-.935 2.105.887l.566 2.164H243V63.187l-2.033.532c-1.188.31-2.855-.212-4.01-1.258-1.927-1.744-2.178-1.593-9.973 5.993-6.694 6.514-8.239 7.579-9.49 6.541-.822-.682-1.494-1.737-1.494-2.345 0-.608 3.465-4.591 7.7-8.851l7.699-7.745-2.192-2.334c-1.699-1.808-1.924-2.603-1-3.527 1.951-1.951 2.774-1.482 8.874 5.057l5.83 6.25.045-30.75L243 0h-51c-45.035 0-51 .178-51 1.525C141 3.021 137.262 5 134.435 5c-2.504 0-1.547-2.793 1.315-3.838 1.896-.692-16.739-1.029-60-1.083L13 0v27.508m92.5-18.601c-4.136.491-5 .939-5 2.593 0 1.479.78 2.089 2.997 2.34 1.648.187 3.286.81 3.641 1.383.354.573.958 5.236 1.343 10.362.738 9.846 1.919 12.32 4.845 10.148 1.463-1.086 1.544-2.245.675-9.733-1.461-12.597-1.432-12.818 1.749-13.184 1.969-.226 2.841-.955 3.07-2.566.291-2.055-.056-2.236-4-2.093-2.376.087-6.57.424-9.32.75m22.118-.098c-.965 1.562-1.891 25.904-1.006 26.448.488.3 4.263.702 8.388.893 7.033.325 7.519.213 7.806-1.797.275-1.927-.306-2.215-5.75-2.847-6.152-.714-6.542-1.091-5.426-5.256.478-1.783 1.321-2.25 4.06-2.25 2.752 0 3.389-.357 3.125-1.75-.218-1.153-1.438-1.857-3.573-2.063-2.966-.287-3.242-.606-3.242-3.75V13h5.941c6.382 0 8.552-1.435 5.521-3.652-2.011-1.47-14.996-1.912-15.844-.539m-42.449 4.143c-3.482.995-6.782 2.261-7.334 2.813-.672.672.113 5.096 2.37 13.369 3.84 14.072 3.225 13.627 14.355 10.392 4.213-1.225 5.44-2.027 5.44-3.554 0-2.275-1.325-2.423-7.595-.844-2.465.621-4.637.958-4.826.75-.19-.208-.645-1.78-1.012-3.493-.615-2.873-.43-3.162 2.383-3.725 2.245-.449 3.05-1.168 3.05-2.723 0-1.911-.382-2.048-4-1.437-3.007.508-4.003.344-4.014-.662-.007-.736-.273-2.304-.589-3.485-.501-1.866-.054-2.235 3.421-2.822 5.067-.856 7.703-2.73 6.876-4.886-.753-1.963-.557-1.971-8.525.307m79.365 1.229c-3.835 11.085-7.506 24.055-7.028 24.828.337.545 1.449.991 2.473.991 1.337 0 2.314-1.367 3.475-4.861 1.547-4.659 1.765-4.856 5.226-4.75 4.679.144 5.531-2.071 1.356-3.526-2.865-.999-3.084-1.374-2.473-4.23.369-1.723.767-3.244.884-3.38.117-.135 2.595.461 5.507 1.326 3.559 1.057 5.625 1.242 6.303.564 2.451-2.451-.297-4.033-13.512-7.783-.965-.274-1.96.096-2.211.821M57.933 23.58c-1.086 1.31-.999 3.753.507 14.25.999 6.969 2.298 12.976 2.885 13.35 2.145 1.367 4.363-.945 3.905-4.069-.395-2.688-.043-3.162 3.413-4.606 3.74-1.563 3.907-1.544 5.677.642 1.432 1.768 2.184 2.025 3.502 1.194.923-.583 1.678-1.525 1.678-2.094 0-1.777-16.912-20.091-18.628-20.171-.895-.042-2.217.635-2.939 1.504m124.575 9.403C179.479 39.024 177 44.562 177 45.29c0 1.673 13.368 8.219 14.878 7.285 2.203-1.361 1.046-3.116-3.876-5.881l-4.996-2.806 1.509-2.917c1.35-2.611 1.763-2.801 3.933-1.813 2.57 1.171 5.552.579 5.552-1.101 0-.553-1.354-1.706-3.01-2.562-2.95-1.526-2.979-1.615-1.474-4.526.844-1.633 1.764-2.969 2.043-2.969.279 0 2.727 1.125 5.439 2.499 4.766 2.415 4.967 2.435 5.948.602.812-1.517.569-2.188-1.216-3.354C197.687 25.104 191.106 22 189.548 22c-.948 0-3.63 4.185-7.04 10.983M63.076 34.17c.46 2.381.856 4.658.88 5.059.053.886 5.044-1.284 5.044-2.193 0-.354-1.521-2.118-3.38-3.92l-3.381-3.276.837 4.33M33.75 37.535C31.137 39.451 29 41.287 29 41.613c0 1.532 14.659 21.315 15.82 21.349 1.93.056 9.972-5.706 11.22-8.037.589-1.101.77-2.996.403-4.213-.842-2.79-5.392-7.712-7.13-7.712C48.591 43 48 41.953 48 40.674c0-2.987-3.925-6.681-7.064-6.649-1.34.013-4.574 1.593-7.186 3.51m173.424.779c-2.762 2.94-2.753 6.441.03 12.169 2.045 4.21 2.086 4.656.56 6.181-1.525 1.526-1.829 1.524-4.204-.033-1.408-.922-2.567-2.229-2.575-2.904-.029-2.274-1.632-3.8-3.315-3.154-2.598.997-1.993 5.258 1.202 8.453 5.546 5.546 11.763 4.904 14.832-1.532 1.652-3.465 1.63-3.662-1.027-9.081-1.495-3.046-2.457-5.961-2.138-6.476 1.185-1.917 4.395-.836 6.857 2.309 2.348 3 2.664 3.123 4.17 1.617 2.122-2.123.719-4.906-3.921-7.774-4.398-2.718-7.774-2.645-10.471.225M37.75 40.392c-2.23 1.693-2.209 2.883.088 4.961 1.717 1.554 1.946 1.543 3.5-.174 2.097-2.317 2.133-4.784.08-5.572-1.92-.737-1.562-.813-3.668.785m6.405 8.212c-2.713 1.9-2.697 2.654.122 5.931 2.263 2.631 2.29 2.636 4.627.744 4.33-3.506-.194-9.865-4.749-6.675M22.092 63.75c1.24 2.063 2.399 3.935 2.576 4.161.176.225 1.225-.409 2.331-1.41 1.996-1.807 1.983-1.838-1.744-4.13-5.202-3.198-5.767-2.952-3.163 1.379m125.233 8.5c-.436.688-.647 3.593-.469 6.456.279 4.502-.027 5.556-2.266 7.795-2.854 2.854-3.381 5.981-1.154 6.836 1.853.711 6.187-2.708 8.084-6.376 1.708-3.303 1.959-11.198.445-14.027-1.178-2.2-3.464-2.537-4.64-.684m-20.579 3.5c-7.024 7.35-8.311 17.001-4.234 31.743 1.369 4.946 2.488 10.009 2.488 11.25 0 2.394-1.415 3.013-2.58 1.128-1.252-2.027-19.134-9.903-23.02-10.14l-3.789-.231-7.346 18.5c-14.393 36.244-29.203 74.396-28.97 74.629.13.13 20.03-10.076 44.221-22.679 24.191-12.604 44.417-23.068 44.946-23.254 1.486-.521-.939-7.446-4.928-14.069-1.944-3.228-3.534-6.04-3.534-6.248 0-.938 5.279-.162 14.498 2.133 11.727 2.918 14.491 3.047 18.802.876 4.456-2.245 9.7-7.426 9.7-9.584 0-2.736-2.493-2.178-7.568 1.696-5.51 4.206-9.514 4.499-19.935 1.459-3.848-1.123-9.922-2.083-13.497-2.133-5.742-.08-6.862-.431-9.598-3.008-2.797-2.633-3.055-3.374-2.647-7.621.305-3.172-.396-7.799-2.151-14.201-3.76-13.72-3.32-18.327 2.525-26.417 2.148-2.973 2.566-4.242 1.729-5.25-1.545-1.862-2.129-1.7-5.112 1.421m-25.079-.083c-1.313 1.313-.619 3.733 2.437 8.495 3.077 4.795 6.138 6.255 7.218 3.442.294-.767-1.042-3.917-2.971-7-3.269-5.227-5.067-6.555-6.684-4.937m66.529 1.083c-2.717 5.439-5.341 13.431-4.839 14.738.319.832 1.449 1.512 2.51 1.512 1.491 0 2.549-1.697 4.652-7.464 1.498-4.105 2.457-8.155 2.133-9-.794-2.07-3.377-1.946-4.456.214M86.063 97.424c-1.912 2.304.104 4.236 5.655 5.42 5.406 1.153 7.282.644 7.282-1.976 0-3.311-10.686-6.156-12.937-3.444m72.635 2.02C150.81 102.258 142 110.373 142 114.826c0 3.919 2.8 3.017 8.644-2.785 6.213-6.17 10.379-8.025 18.041-8.035 2.302-.003 5.335.431 6.741.966 3.261 1.24 5.574.356 5.574-2.13 0-4.29-13.875-6.404-22.302-3.398m15.625 15.203c-3.376.734-4.974 3.132-3.237 4.859 1.038 1.031 2.377 1.187 5.035.584 2.504-.568 4.816-.373 7.5.633 5.773 2.164 7.879 2.119 7.879-.167 0-3.776-10.452-7.371-17.177-5.909m-.753 35.031c-.917 2.389 1.083 3.87 7.813 5.783 6.184 1.758 8.09 1.235 7.458-2.046-.235-1.224-2.257-2.37-6.343-3.593-7.426-2.222-8.126-2.234-8.928-.144m-13.45 7.248c-1.811 1.119-.608 9.949 1.463 10.744 2.827 1.085 4.319-1.433 3.236-5.465-1.235-4.598-2.856-6.419-4.699-5.279m74.326 22.161c-.369.598-.21 1.549.354 2.113 1.262 1.262 3.2.196 3.2-1.759 0-1.684-2.574-1.94-3.554-.354m-216 10c-1.03 1.668 1.287 3.58 2.667 2.2C22.267 190.133 21.545 188 20 188c-.485 0-1.184.489-1.554 1.087m211 0c-1.03 1.668 1.287 3.58 2.667 2.2 1.154-1.154.432-3.287-1.113-3.287-.485 0-1.184.489-1.554 1.087M24 200c0 1.111.667 2 1.5 2s1.5-.889 1.5-2-.667-2-1.5-2-1.5.889-1.5 2m200-.559c0 .793.399 1.688.887 1.989 1.101.681 3.342-1.868 2.438-2.772-1.19-1.19-3.325-.687-3.325.783m-193.554 8.646c-1.03 1.668 1.287 3.58 2.667 2.2C34.267 209.133 33.545 207 32 207c-.485 0-1.184.489-1.554 1.087m187 0c-1.03 1.668 1.287 3.58 2.667 2.2 1.154-1.154.432-3.287-1.113-3.287-.485 0-1.184.489-1.554 1.087m-179.269 9.466c.452 2.172 2.227 2.305 2.633.197.21-1.095-.28-1.75-1.31-1.75-.961 0-1.512.647-1.323 1.553M210 217.5c0 1.03.655 1.52 1.75 1.31 2.108-.406 1.975-2.181-.197-2.633-.906-.189-1.553.362-1.553 1.323m-7.361 6.194c-1.195 1.195-.645 3.306.861 3.306.825 0 1.5-.648 1.5-1.441 0-1.671-1.427-2.798-2.361-1.865M46 225.5c0 1.03.655 1.52 1.75 1.31 2.108-.406 1.975-2.181-.197-2.633-.906-.189-1.553.362-1.553 1.323m147.658 5.175c-.362.362-.658 1.258-.658 1.992 0 1.489 2.578 1.825 3.43.446.681-1.101-1.868-3.342-2.772-2.438M55 232.5c0 1.03.655 1.52 1.75 1.31 2.108-.406 1.975-2.181-.197-2.633-.906-.189-1.553.362-1.553 1.323m9.667 5.167C63.399 238.934 64.008 240 66 240c1.111 0 2-.667 2-1.5 0-1.522-2.115-2.051-3.333-.833m119 0c-1.268 1.267-.659 2.333 1.333 2.333 1.111 0 2-.667 2-1.5 0-1.522-2.115-2.051-3.333-.833m-109.221 5.42c-1.03 1.668 1.287 3.58 2.667 2.2C78.267 244.133 77.545 242 76 242c-.485 0-1.184.489-1.554 1.087m99 0c-1.03 1.668 1.287 3.58 2.667 2.2 1.154-1.154.432-3.287-1.113-3.287-.485 0-1.184.489-1.554 1.087m-88 4c-1.03 1.668 1.287 3.58 2.667 2.2C89.267 248.133 88.545 246 87 246c-.485 0-1.184.489-1.554 1.087M163 248c0 1.111.667 2 1.5 2s1.5-.889 1.5-2-.667-2-1.5-2-1.5.889-1.5 2m-66.361 1.694c-1.195 1.195-.645 3.306.861 3.306.825 0 1.5-.648 1.5-1.441 0-1.671-1.427-2.798-2.361-1.865m55.706.849c-.754 1.966.138 2.869 2.095 2.118.879-.337 1.276-1.238.936-2.123-.758-1.976-2.272-1.973-3.031.005m-44.687 1.132c-.362.362-.658 1.258-.658 1.992 0 1.489 2.578 1.825 3.43.446.681-1.101-1.868-3.342-2.772-2.438m34 0c-.362.362-.658 1.258-.658 1.992 0 1.489 2.578 1.825 3.43.446.681-1.101-1.868-3.342-2.772-2.438" fill="#1976D2" fill-rule="evenodd"/></svg>