<svg xmlns="http://www.w3.org/2000/svg" width="256" height="256"><path fill-opacity=".016" d="M0 128.004v128.004l128.25-.254 128.25-.254.254-127.75L257.008 0H0v128.004m.485.496c0 70.4.119 99.053.265 63.672.146-35.38.146-92.98 0-128C.604 29.153.485 58.1.485 128.5" fill="#1976D2" fill-rule="evenodd"/><path fill-opacity=".147" d="M183.352 45.25c-5.227 5.693-7.842 10.164-9.757 16.682-5.556 18.917 3.529 39.948 21.137 48.931 4.715 2.406 4.566 2.036 8.732 21.637 2.797 13.161 4.918 16.5 10.481 16.5 5.63 0 7.006-2.394 10.64-18.509 1.849-8.2 3.56-15.426 3.802-16.056.241-.63 2.841-2.503 5.776-4.162 2.935-1.659 7.506-5.339 10.157-8.177 14.931-15.985 15.191-39.464.623-56.346L240.844 41h-53.589l-3.903 4.25m33.398 17.833c-.963 1.055-2.895 1.917-4.295 1.917-3.92 0-7.455 4.163-7.455 8.78 0 5.212 3.583 8.675 8.976 8.675 4.753 0 7.753-2.493 8.63-7.171.356-1.892 1.513-4.249 2.572-5.236 1.892-1.762 1.866-1.859-1.494-5.421-3.862-4.096-4.478-4.233-6.934-1.544M95.223 88.557c-2.129 1.49-2.223 2.191-2.223 16.5V120h-7.943C74.677 120 74 120.84 74 133.723V143h-9.845c-11.698 0-12.871.769-13.344 8.759l-.311 5.234-5.5-4.458c-3.025-2.452-6.4-4.474-7.5-4.493-2.072-.035-26.134 18.553-27.747 21.434-.972 1.737 1.427 6.524 3.27 6.524.537 0 .97 1.463.961 3.25-.015 3.02-.511 3.496-7 6.727L0 189.454v24.554l128.25-.254 128.25-.254.28-12.779.28-12.779-3.121-2.851c-5.91-5.398-7.442-5.764-11.632-2.783-3.146 2.238-3.944 2.437-5.258 1.308-5.232-4.494-22.274-17.616-22.878-17.616-.399 0-1.726.701-2.948 1.557-2.209 1.546-2.223 1.524-2.223-3.465 0-3.941-.416-5.244-1.934-6.057-1.071-.573-8.217-1.035-16-1.035H177v-7.309c0-11.423.412-11.191-19.918-11.191h-17.08l-.001-7.027C140 121.11 138.93 120 128.943 120H121v-7.977c0-7.347-.192-8.103-2.433-9.571-5.151-3.375-8.165 1.7-7.417 12.491l.35 5.058h-4.178l-4.178-.001-.322-15.083c-.29-13.564-.517-15.225-2.263-16.5-2.423-1.769-2.619-1.764-5.336.14M.389 201.5c.001 7.15.161 9.944.353 6.208.193-3.735.192-9.585-.003-13-.194-3.414-.352-.358-.35 6.792m49.993-1c.002 6.6.164 9.17.359 5.711.196-3.459.195-8.859-.003-12s-.358-.311-.356 6.289m157.87-3c.011 2.2.216 2.982.455 1.738.239-1.244.23-3.044-.02-4s-.446.062-.435 2.262m-7.932 8.5c0 3.575.182 5.037.403 3.25.222-1.787.222-4.713 0-6.5-.221-1.787-.403-.325-.403 3.25" fill="#1976D2" fill-rule="evenodd"/><path fill-opacity=".285" d="M182.945 45.75c-8.328 9.363-12.318 22.766-10.187 34.222 2.412 12.974 9.042 22.564 20.675 29.912l6.219 3.927 2.753 12.845c3.609 16.839 4.342 19.053 6.894 20.841 3.033 2.124 6.166 1.867 9.217-.757 2.665-2.292 3.137-3.839 7.945-26.01l1.684-7.77 5.058-2.563c7.185-3.641 14.341-11.213 18.104-19.156 2.989-6.31 3.193-7.445 3.193-17.741 0-9.841-.282-11.602-2.68-16.718-1.474-3.145-4.798-7.983-7.387-10.75L239.726 41H187.17l-4.225 4.75m34.142 16.645c-.637.768-2.645 1.675-4.463 2.016C200.978 66.596 202.658 83 214.527 83c3.339 0 8.473-5.01 8.473-8.268 0-1.332.9-3.237 2-4.232 2.594-2.348 2.544-2.706-.901-6.394-3.157-3.379-5.211-3.88-7.012-1.711M94.035 89.934c-.573 1.071-1.035 8.217-1.035 16V120h-7.066C75.116 120 75 120.133 75 132.535V143H65c-12.27 0-14 1.112-14 9 0 2.75-.255 5-.567 5-.313 0-3.054-2.025-6.092-4.5s-6.15-4.5-6.915-4.5c-.765 0-7.136 4.613-14.158 10.25-9.899 7.947-12.838 10.853-13.078 12.933-.218 1.89.299 3.008 1.75 3.785 1.436.768 2.06 2.094 2.06 4.374 0 3.061-.45 3.489-7 6.658l-7 3.386v10.639l7-3.525 7-3.525.002 9.762.003 9.763-7.003-.332c-4.574-.217-7.002.044-7.002.754 0 .777 36.501 1.013 128.25.832l128.25-.254.273-11.5c.151-6.325.043-12.4-.24-13.5-.623-2.427-7.596-7.5-10.308-7.5-1.075 0-3.099.9-4.498 2-1.398 1.1-2.753 2-3.01 2-.258 0-5.53-4.05-11.717-9-10.994-8.796-14.279-10.321-16.8-7.8-.933.933-1.2.168-1.2-3.443 0-7.112-1.516-7.757-18.223-7.757H177v-6.889c0-11.035-.03-11.052-20.5-11.357l-17-.254-.28-8c-.345-9.875-.994-10.5-10.911-10.5H121v-7.066c0-8.106-1.121-10.934-4.335-10.934-3.805 0-4.665 1.881-4.665 10.2v7.8h-10v-14.8c0-10.178-.375-15.175-1.2-16-1.837-1.837-5.608-1.428-6.765.734m-5.285 39.801l-4.75.375V139h17.3c17.819 0 19.7.394 19.7 4.129 0 4.331-2.226 4.871-20.071 4.871H84v9h16.845c15.049 0 17.021.195 18.5 1.829 2.268 2.506 2.075 4.764-.568 6.614-1.79 1.254-5.386 1.557-18.5 1.557H84v9h17.521c17.471 0 17.525.007 18.603 2.374.785 1.722.77 2.956-.056 4.5-1.094 2.044-1.816 2.126-18.603 2.126H84v9h16.277c13.114 0 16.71.303 18.5 1.557 2.699 1.89 2.854 4.562.394 6.788-1.547 1.401-4.39 1.655-18.5 1.655H84v9h46v-84l-18.25.18c-10.037.099-20.388.349-23 .555M140 152.5c0 4.279.14 4.5 2.845 4.5 3.06 0 6.155 2.651 6.155 5.272 0 2.07-3.779 4.728-6.723 4.728-2.032 0-2.277.484-2.277 4.5v4.5h27v-4.5c0-4.016-.245-4.5-2.277-4.5-3.043 0-6.723-2.683-6.723-4.902 0-2.533 3.185-5.098 6.329-5.098 2.499 0 2.671-.29 2.671-4.5V148h-27v4.5m-79 6.778c0 5.04.394 6.615 2 7.99 3.458 2.961 2.074 8.732-2.095 8.732-.932 0-6.45-3.825-12.261-8.5-5.812-4.675-10.833-8.5-11.159-8.5-.325 0-3.667 2.485-7.426 5.521l-6.833 5.522-.152 21.478L22.923 213H51v-12.345c0-10.69.245-12.567 1.829-14 2.377-2.151 4.462-2.095 6.516.174 1.349 1.491 1.655 4.078 1.655 14V213h13v-60H61v6.278M177 190v23h14v-8.712c0-8.228-.147-8.83-2.652-10.827-3.851-3.071-2.586-5.999 5.159-11.949 6.383-4.903 6.493-5.068 6.493-9.75V167h-23v23M34.75 172.08c-1.278.744-1.75 2.301-1.75 5.77 0 5.171 1.246 7.15 4.5 7.15 3.174 0 4.5-1.953 4.5-6.629 0-6.093-3.048-8.738-7.25-6.291m172 10.67l-6.75 5.482V213h28v-24.526l-5.694-4.487c-3.131-2.468-6.393-4.989-7.25-5.603-1.256-.901-2.856-.06-8.306 4.366M140 189.5v4.5h27v-9h-27v4.5m-139.69 5c.005 3.3.192 4.529.415 2.732.222-1.797.218-4.497-.01-6-.229-1.503-.411-.032-.405 3.268m33.89-3.3c-.66.66-1.2 3.37-1.2 6.021 0 4.171.337 4.975 2.496 5.959 3.697 1.685 6.504-1.179 6.504-6.635 0-4.597-1.339-6.545-4.5-6.545-1.155 0-2.64.54-3.3 1.2m175.835.734c-.569 1.064-1.035 3.529-1.035 5.477 0 4.467 3.615 7.4 6.933 5.625 1.645-.881 2.067-2.078 2.067-5.871 0-2.621-.54-5.305-1.2-5.965-1.837-1.837-5.608-1.428-6.765.734m35.847-.184a5.963 5.963 0 00-.04 1.382c.044.348-.679.573-1.607.5-.928-.072-1.718.543-1.756 1.368-.039.825-.659 1.372-1.38 1.215-2.932-.638-4.099 1.967-4.101 9.157l-.003 7.128 9.003-.321 9.002-.321v-6.429c0-3.536-.005-6.767-.011-7.179-.006-.412-.794-.751-1.75-.751-.957-.001-1.74-.676-1.742-1.5-.001-.825-.757-1.505-1.679-1.512-.922-.007-2.046-.416-2.497-.91-.482-.527-.201-.545.679-.045 1.293.734 1.311.619.128-.84-1.503-1.852-2.065-2.088-2.246-.942M12.349 203c0 4.675.173 6.588.383 4.25.211-2.338.211-6.162 0-8.5-.21-2.338-.383-.425-.383 4.25M140 208.5v4.5h27v-9h-27v4.5" fill="#1976D2" fill-rule="evenodd"/><path fill-opacity=".987" d="M183.567 46.032c-2.589 2.767-5.913 7.605-7.387 10.75-2.398 5.116-2.68 6.877-2.68 16.718 0 10.268.208 11.433 3.126 17.5 4.171 8.673 8.755 13.714 16.695 18.357l6.59 3.854 1.656 7.645C207.243 147.04 207.682 148 214 148c2.251 0 4.301-.683 5.256-1.75.862-.963 3.018-8.5 4.791-16.75 1.773-8.25 3.674-15.571 4.226-16.268.551-.698 2.577-2.016 4.5-2.929 9.327-4.425 18.422-16.248 21.303-27.691 2.976-11.818-1.302-27.477-10.118-37.042L239.745 41l-10.122.033-10.123.032 5.27 1.821c7.537 2.603 14.074 8.516 18.124 16.394 2.855 5.554 3.4 7.68 3.435 13.41.025 3.957-.693 8.997-1.714 12.03-2.188 6.503-9.271 14.565-15.627 17.786-7.047 3.571-9.303 6.867-11.348 16.575-.975 4.631-2.257 10.219-2.849 12.419l-1.077 4-2.74-12.248c-1.507-6.736-3.44-13.314-4.295-14.619-.854-1.304-4.031-3.77-7.059-5.479-7.359-4.152-12.329-9.304-15.5-16.068-3.767-8.032-3.727-19.283.096-27.091 3.594-7.338 10.104-13.529 17.366-16.515l5.918-2.433-9.613-.023-9.613-.024-4.707 5.032m25.47 10.142C200.855 58.521 196 65.164 196 74.01c0 5.553 1.52 9.285 5.169 12.692 3.108 2.902 8.979 5.298 12.983 5.298 4.148 0 11.281-3.464 13.845-6.723 4.255-5.41 5.069-14.27 1.439-15.663-2.635-1.011-5.164 1.125-5.886 4.971-1.574 8.392-10.709 11.409-16.627 5.492-3.107-3.107-3.722-6.646-1.806-10.393 1.646-3.218 5.035-5.636 7.933-5.662 4.636-.04 6.555-4.274 3.379-7.451-1.767-1.766-2.486-1.805-7.392-.397M95.15 89.319c-.654.789-1.206 7.32-1.372 16.25L93.5 120.5l-7.953.296c-4.374.162-8.536.78-9.25 1.372-.91.756-1.297 4.17-1.297 11.454V144H64.7c-6.678 0-10.722.422-11.5 1.2-.66.66-1.2 3.81-1.2 7s-.263 5.8-.584 5.8c-.322 0-3.162-2.025-6.313-4.5-3.15-2.475-6.655-4.5-7.788-4.5C34.378 149 10 168.697 10 171.071c0 1.035 1.149 2.635 2.552 3.555 1.984 1.3 2.485 2.363 2.25 4.773-.266 2.734-1.16 3.55-7.552 6.9L0 190.098v4.451C0 196.997.238 199 .529 199c.29 0 3.202-1.35 6.471-3s6.435-3 7.036-3c.741 0 .991 3.381.778 10.502l-.314 10.502 4.25-.002L23 214v-44.526l5.694-4.487c3.131-2.468 6.399-5 7.261-5.627 1.287-.935 3.449.365 12.056 7.248 5.769 4.613 11.446 8.388 12.617 8.389 4.596.006 5.534-5.769 1.304-8.033-1.625-.87-1.932-2.139-1.932-7.999V152h15v62l4.25.002 4.25.002V203.5l18-.5 18-.5.313-3.25c.173-1.787.173-3.336 0-3.441-.172-.106-8.413-.443-18.313-.75l-18-.559-.305-4.75-.305-4.75h16.621c9.545 0 17.444-.441 18.555-1.035 2.162-1.157 2.571-4.928.734-6.765-.841-.841-6.39-1.2-18.555-1.2H82.89l.305-4.75.305-4.75 18-.559c9.9-.307 18.141-.644 18.313-.75.173-.105.173-1.654 0-3.441l-.313-3.25-18-.5-18-.5-.305-4.75-.305-4.75h15.99c17.651 0 21.12-.702 21.12-4.275 0-4.397-1.369-4.725-19.7-4.725H83v-10h48.042l-.271 42.5-.271 42.501 4.25-.001H139v-11h29v11h8v-48h24v10.828l-6.394 5.087c-3.516 2.798-6.652 5.762-6.968 6.586-.824 2.146.241 4.326 2.454 5.028 1.709.542 1.908 1.644 1.908 10.538V214l4.25.002 4.25.002-.303-12.781-.302-12.78 6.302-5.027c3.467-2.765 6.882-5.377 7.591-5.804.827-.499 3.773 1.232 8.25 4.849l6.962 5.625V214h9v-16.661l4.413-3.169c2.428-1.744 4.726-3.17 5.107-3.17.381 0 2.332 1.274 4.336 2.832 6.128 4.763 6.144 4.762 6.144-.388 0-4.122-.442-5.079-3.741-8.1-4.911-4.499-7.505-5.082-10.859-2.444-1.468 1.155-3.11 2.1-3.648 2.1-.538 0-6.052-4.05-12.252-9-10.844-8.657-13.664-10.161-15-8-1.295 2.096-2.5.86-2.5-2.566 0-7.34-.223-7.434-17.535-7.434H176v-8.465c0-7.345-.256-8.602-1.934-9.5-1.11-.594-8.993-1.035-18.5-1.035H139v-7.878c0-5.235-.435-8.238-1.297-8.954-.714-.592-4.876-1.21-9.25-1.372l-7.953-.296-.296-7.953c-.293-7.887-1.24-10.547-3.755-10.547-3.223 0-4.449 3.052-4.449 11.071V121h-10v-14.929c0-12.238-.283-15.211-1.571-16.5-1.918-1.917-3.821-2.008-5.279-.252m57.6 58.459l-13.75.278v9.829l4.25.308c3.566.257 4.303.678 4.577 2.612.465 3.284-1.539 5.195-5.449 5.195H139v10h29v-5c0-4.971-.019-5-3.25-5.015-4.527-.022-5.967-1.207-5.58-4.594.3-2.624.722-2.919 4.58-3.198l4.25-.308v-4.883c0-2.686-.338-5.023-.75-5.193-.412-.17-6.937-.184-14.5-.031M34.243 173.157c-1.949 1.949-1.534 8.27.674 10.268 3.915 3.542 8.527-2.396 6.458-8.315-1.02-2.919-5.06-4.025-7.132-1.953M139 190v5h29v-10h-29v5m-86.333-3.333c-.367.366-.667 6.666-.667 14V214h8v-12.418c0-6.83-.273-13.13-.607-14-.603-1.572-5.415-2.226-6.726-.915M.286 194.5c.008 2.75.202 3.756.432 2.236.229-1.52.223-3.77-.014-5-.237-1.23-.425.014-.418 2.764m34.285-2.929c-1.852 1.853-2.093 8.507-.371 10.229.66.66 2.219 1.2 3.465 1.2 4.077 0 5.759-6.522 2.778-10.777-1.833-2.617-3.699-2.824-5.872-.652m176.493-.149c-.66.796-1.044 3.549-.872 6.25.266 4.17.622 4.873 2.613 5.155 3.385.48 5.195-1.569 5.195-5.878 0-5.657-4.109-8.932-6.936-5.527" fill="#1976D2" fill-rule="evenodd"/></svg>