<svg xmlns="http://www.w3.org/2000/svg" width="256" height="256"><path fill-opacity=".016" d="M0 128.004v128.004l128.25-.254 128.25-.254.254-127.75L257.008 0H0v128.004m.485.496c0 70.4.119 99.053.265 63.672.146-35.38.146-92.98 0-128C.604 29.153.485 58.1.485 128.5" fill="#1976D2" fill-rule="evenodd"/><path fill-opacity=".147" d="M182.945 45.75c-2.323 2.612-5.623 7.675-7.332 11.25-2.845 5.951-3.106 7.345-3.083 16.5.02 7.961.477 11.122 2.241 15.5 3.245 8.057 8.9 14.933 16.246 19.754 3.566 2.34 6.966 4.646 7.556 5.124.59.479 2.515 7.548 4.277 15.711 3.737 17.304 5.166 19.687 11.518 19.208 5.676-.429 7.083-3.049 10.854-20.227l3.278-14.93 5-2.737c24.189-13.242 29.597-45.487 10.981-65.478L240.36 41h-53.19l-4.225 4.75m34.24 17.325c-.661 1.059-2.128 1.925-3.259 1.925-5.051 0-8.862 3.871-8.862 9 0 5.364 3.816 9 9.447 9 3.271 0 8.489-4.975 8.489-8.094 0-1.237.746-3.073 1.659-4.081 2.162-2.39.606-6.119-3.422-8.202-2.62-1.355-2.946-1.319-4.052.452M94.2 89.2c-.825.825-1.2 5.822-1.2 16V120h-7.5c-10.628 0-11.5 1.023-11.5 13.5v9.5h-9.309c-11.705 0-12.966.781-13.671 8.471l-.52 5.661-5.87-4.566c-3.229-2.511-6.472-4.566-7.208-4.566-1.822 0-26.036 19.41-27.404 21.967-.909 1.697-.662 2.48 1.443 4.585 1.493 1.493 2.539 3.677 2.539 5.3 0 2.43-.841 3.168-7 6.148l-7 3.386v24.622l128.25-.254 128.25-.254.29-11.5c.16-6.325.052-12.4-.24-13.5-.645-2.433-7.621-7.5-10.325-7.5-1.075 0-3.155.944-4.621 2.097-1.768 1.391-3.076 1.784-3.885 1.169-.67-.51-5.804-4.604-11.408-9.097-10.092-8.091-13.511-9.569-16.111-6.969-.933.933-1.2.052-1.2-3.965 0-4.083-.405-5.381-1.934-6.2-1.071-.573-8.217-1.035-16-1.035H177v-7.429c0-10.774.386-10.571-20.071-10.571H140v-7.5c0-10.228-1.272-11.5-11.5-11.5H121v-7.8c0-8.272-.865-10.2-4.578-10.2-3.417 0-4.29 1.991-4.51 10.282l-.204 7.718H103v-14.345c0-12.627-.219-14.543-1.829-16-2.148-1.944-5.278-2.148-6.971-.455M.389 201.5c.001 7.15.161 9.944.353 6.208.193-3.735.192-9.585-.003-13-.194-3.414-.352-.358-.35 6.792m49.996-.5c0 6.875.16 9.688.355 6.25.196-3.437.196-9.062 0-12.5-.195-3.437-.355-.625-.355 6.25m157.81-2.5c.02 1.65.244 2.204.498 1.231.254-.973.237-2.323-.037-3-.274-.677-.481.119-.461 1.769" fill="#1976D2" fill-rule="evenodd"/><path fill-opacity=".276" d="M183.519 45.425c-5.301 5.693-9.083 13.48-10.633 21.893-3.067 16.642 5.642 34.143 21.603 43.412l4.988 2.897 2.166 9.436c1.191 5.19 2.704 12.091 3.362 15.334 1.405 6.917 4.478 10.603 8.839 10.603 5.769 0 7.069-2.284 10.711-18.814 1.847-8.379 3.602-15.631 3.901-16.115.299-.484 2.907-2.215 5.794-3.847 2.888-1.632 7.419-5.29 10.07-8.128 14.796-15.84 14.845-40.314.113-56.064L239.726 41H187.64l-4.121 4.425m33.231 17.658c-.963 1.055-2.895 1.917-4.295 1.917-4.012 0-7.455 4.157-7.455 9 0 5.549 3.382 9 8.818 9 4.586 0 9.182-3.822 9.182-7.636 0-1.3.9-3.264 2-4.364s2-2.209 2-2.465c0-1.124-6.319-7.527-7.354-7.452-.63.046-1.933.946-2.896 2M94.655 89.829c-1.379 1.524-1.655 4.232-1.653 16.25l.002 14.421-6.544-.337c-4.782-.247-7.207.096-9.002 1.273-2.352 1.54-2.458 2.063-2.458 12.087V144l-10.25.015c-5.638.009-10.925.442-11.75.963-1.063.672-1.5 2.706-1.5 6.982 0 3.319-.138 6.036-.306 6.037-.168.002-3.087-2.247-6.486-4.997-3.398-2.75-6.636-4.996-7.194-4.991-.557.005-6.976 4.731-14.264 10.502C12.609 166.938 10 169.495 10 171.494c0 1.406.87 3.033 2 3.738 1.333.832 2 2.332 2 4.496 0 3.018-.494 3.496-7 6.772l-7 3.525v4.988C0 197.756.238 200 .529 200c.29 0 3.202-1.35 6.471-3s6.181-3 6.471-3c.291 0 .436 4.387.321 9.75l-.207 9.75-.33-9.222-.329-9.223-6.463 3.187L0 201.429v12.579l128.25-.254 128.25-.254.232-12.421.231-12.42-4.148-3.83c-4.636-4.28-7.14-4.704-10.815-1.829-1.375 1.076-2.852 1.966-3.282 1.978-.431.012-5.827-4.028-11.992-8.978-6.165-4.95-11.805-9-12.533-9-.729 0-2.195.466-3.259 1.035-1.774.95-1.934.676-1.934-3.3 0-2.384-.54-4.875-1.2-5.535-.825-.825-5.822-1.2-16-1.2H177v-7.277c0-11.84.2-11.723-19.951-11.723h-16.837l-.362-7.955c-.213-4.706-.887-8.482-1.65-9.245-.763-.763-4.539-1.437-9.245-1.65l-7.955-.362v-7.322c0-7.676-1.299-10.466-4.871-10.466-3.241 0-4.129 2.194-4.129 10.2v7.8h-10v-14.8c0-15.148-.483-17.2-4.045-17.2-.905 0-2.39.823-3.3 1.829M84 134.5v4.5h17.3c18.152 0 19.7.353 19.7 4.5s-1.548 4.5-19.7 4.5H84v9h16.277c17.302 0 20.723.823 20.723 4.985 0 4.488-2.109 5.015-20.071 5.015H84v9h16.929c14.291 0 17.181.253 18.553 1.625.893.893 1.488 2.569 1.321 3.725-.511 3.544-4.418 4.682-15.803 4.605-5.775-.04-12.862-.046-15.75-.013L84 186l.002 4.25.003 4.25 17.247.356c9.63.198 17.8.804 18.498 1.372 1.902 1.547 1.494 5.571-.684 6.737-1.11.594-8.993 1.035-18.5 1.035H84v9h46v-83H84v4.5m56 18c0 4.016.245 4.5 2.277 4.5 3.089 0 6.723 2.695 6.723 4.985 0 2.756-2.735 5.015-6.071 5.015-2.805 0-2.929.191-2.929 4.5v4.5h27v-4.5c0-4.279-.14-4.5-2.845-4.5-3.06 0-6.155-2.651-6.155-5.272 0-2.07 3.779-4.728 6.723-4.728 2.032 0 2.277-.484 2.277-4.5V148h-27v4.5m-79 6.845c0 5.075.4 6.707 2 8.155 3.509 3.175 2.046 8.5-2.336 8.5-1.064 0-6.262-3.447-11.55-7.66-5.288-4.213-10.108-8.036-10.712-8.496-.678-.517-3.642 1.17-7.75 4.409L24 169.498V213h27v-12c0-10.667.222-12.222 2-14 2.408-2.408 2.917-2.447 5.777-.443 2.095 1.467 2.223 2.275 2.223 14V213h13v-60H61v6.345M177 190v23h14v-8.606c0-7.989-.179-8.747-2.5-10.573-3.984-3.133-3.143-5.286 4.5-11.531 6.895-5.632 7-5.79 7-10.504V167h-23v23M35.204 172.57c-1.683 1.179-2.204 2.546-2.204 5.787 0 4.722 1.323 6.643 4.578 6.643 3.199 0 4.584-2.31 4.233-7.062-.4-5.418-3.241-7.726-6.607-5.368m171.48 10.657L200 188.498V213h28l-.037-12.25-.036-12.25-6.476-5c-3.562-2.75-6.837-5.122-7.279-5.272-.442-.149-3.811 2.1-7.488 4.999m-53.434 2.52l-13.25.311.005 4.221.004 4.221 13.496.352 13.495.353v-5.103c0-2.806-.113-5.004-.25-4.884-.137.12-6.213.359-13.5.529M.3 195c0 3.025.187 4.262.416 2.75.229-1.512.229-3.988 0-5.5S.3 191.975.3 195m34.327-3.717c-1.346.985-1.681 2.415-1.441 6.148.375 5.811 2.288 7.586 6.236 5.786 2.269-1.033 2.578-1.772 2.578-6.16 0-3.907-.419-5.211-1.934-6.022-2.508-1.342-3.314-1.305-5.439.248m176.028.546c-3.534 3.905-1.077 12.171 3.617 12.171 2.149 0 4.728-3.819 4.728-7 0-3.283-2.603-7-4.902-7-.983 0-2.533.823-3.443 1.829m33.217 1.832c-1.248 1.511-1.179 1.54.768.328 1.912-1.191 2.601-.986 6.5 1.934l4.36 3.266-4-3.579c-4.503-4.03-5.663-4.327-7.628-1.949m-4 3.089c-1.243 1.586-1.208 1.621.378.378 1.666-1.307 2.195-2.128 1.372-2.128-.207 0-.995.787-1.75 1.75m-2.673 8.5L237 213l9.25-.206 9.25-.205-8.707-.333-8.707-.333-.344-7.211-.345-7.212-.198 7.75M.187 207l-.191 6.5 6.252-.49 6.252-.49-5.702-.308-5.701-.309-.359-5.701-.36-5.702-.191 6.5M140 208.5v4.5h27v-9h-27v4.5" fill="#1976D2" fill-rule="evenodd"/><path fill-opacity=".987" d="M184.352 45.25c-8.682 9.455-11.779 17.944-11.172 30.628.336 7.034.993 9.895 3.505 15.263 3.842 8.21 9.159 14.189 16.099 18.106 2.938 1.658 5.944 3.968 6.681 5.134.737 1.165 2.518 7.744 3.957 14.619 3.188 15.231 4.024 17.427 7.193 18.87 3.553 1.619 4.947 1.419 7.808-1.12 2.09-1.855 3.072-4.709 5.591-16.25 1.681-7.7 3.299-14.797 3.595-15.771.296-.973 2.814-2.923 5.596-4.333 7.087-3.591 13.864-10.76 17.875-18.908 3.236-6.573 3.42-7.511 3.42-17.467 0-9.713-.239-11.02-3.11-17.021-1.711-3.575-5.012-8.638-7.335-11.25L239.83 41l-10.665.067c-10.332.065-10.533.108-6.451 1.384 14.749 4.609 23.618 16.447 23.642 31.557.021 12.697-5.376 21.658-17.356 28.821-3.575 2.137-7.262 5.187-8.194 6.778-.931 1.591-2.642 7.393-3.801 12.893-1.16 5.5-2.368 10.675-2.686 11.5-.318.825-1.785-3.961-3.259-10.637-1.475-6.675-3.431-13.28-4.347-14.678-.916-1.399-4.392-3.996-7.725-5.772C187.632 96.86 181.564 86.783 181.58 74c.017-14.522 8.641-26.777 21.773-30.939l6.147-1.949-10.623-.056L188.255 41l-3.903 4.25M207 57.097c-3.211 1.307-7.785 5.649-9.589 9.103-.776 1.486-1.411 4.995-1.411 7.8 0 17.512 21.306 24.577 32.367 10.734 2.328-2.914 3.023-4.81 3.071-8.372.107-7.988-5.918-8.856-7.749-1.116-1.994 8.431-11.25 11.168-16.791 4.965C205.08 78.177 204 75.862 204 74c0-3.932 4.549-8.956 8.919-9.85 4.135-.845 6.055-3.377 4.475-5.9-1.279-2.041-6.729-2.646-10.394-1.153M95.75 89.08c-1.547.901-1.75 2.81-1.75 16.47V121h-8.3c-5.122 0-8.759.459-9.5 1.2-.778.778-1.2 4.822-1.2 11.5V144H64.7c-6.678 0-10.722.422-11.5 1.2-.66.66-1.2 3.81-1.2 7s-.309 5.8-.688 5.8c-.378 0-3.265-2.025-6.415-4.5-3.151-2.475-6.491-4.5-7.424-4.5-2.076 0-26.162 18.864-26.952 21.109-.806 2.289.344 4.713 2.571 5.42 1.375.437 1.908 1.538 1.908 3.94 0 3.141-.436 3.559-7.496 7.183L.009 190.5l-.005 4.763L0 200.025l6.975-3.512c3.836-1.932 7.24-3.513 7.564-3.513.324 0 .448 4.726.275 10.502l-.314 10.502 4.25-.002L23 214v-43.914l6.995-5.652c3.848-3.108 7.56-5.409 8.25-5.112.69.297 5.755 4.168 11.255 8.604 5.5 4.435 10.53 8.066 11.179 8.069 1.65.007 4.321-2.845 4.321-4.614 0-.812-1.148-2.54-2.55-3.84-2.288-2.12-2.519-3.002-2.25-8.567l.3-6.203 7 .003 7 .003.264 30.612.265 30.611 4.235.001H83.5l-.347-5-.346-5.001h17.096c15.965 0 17.234-.137 19.17-2.073 1.866-1.866 1.929-2.292.63-4.25-1.366-2.062-2.362-2.203-18.823-2.677l-17.38-.5v-9l18-.559c9.9-.307 18.06-.644 18.133-.75.904-1.297.91-4.426.011-5.631-.938-1.256-4.301-1.58-18.644-1.796l-17.5-.264v-10l17.727-.273c16.251-.25 17.812-.432 18.747-2.178.816-1.525.666-3.906-.331-5.24-.079-.106-8.243-.443-18.143-.75l-18-.559v-9l17.38-.5c16.461-.474 17.457-.615 18.823-2.677 1.299-1.958 1.236-2.384-.63-4.25-1.935-1.935-3.205-2.073-19.128-2.073H82.89l.305-4.75.305-4.75 23.75-.268 23.75-.268V214h8v-10h29v10h7.964l.268-23.75.268-23.75 11.75-.282 11.75-.281-.037 5.781-.036 5.782-6.464 4.988c-5.278 4.073-6.463 5.511-6.463 7.843 0 2.015.589 3.01 2 3.379 1.83.479 2 1.364 2 10.407V214h4.5c2.475 0 4.447-.338 4.382-.75-.066-.412-.066-6.243 0-12.957l.118-12.207 6.957-5.621 6.957-5.621 7.043 5.691 7.043 5.69V214h9l.039-8.25.039-8.25 4.481-3.297c4.853-3.57 4.852-3.57 11.191 1.519l4.25 3.412v-5.123c0-4.451-.406-5.494-3.091-7.947-5.878-5.369-7.416-5.734-11.602-2.756-3.146 2.238-3.944 2.437-5.258 1.308-5.232-4.494-22.274-17.616-22.878-17.616-.399 0-1.726.701-2.948 1.557-2.198 1.539-2.223 1.506-2.223-2.929 0-7.279-.826-7.628-18.071-7.628H176v-8.525c0-8.323-.063-8.549-2.677-9.542-1.472-.56-9.684-.954-18.25-.876l-15.573.142-.289-8.009c-.176-4.89-.779-8.417-1.547-9.054-.692-.575-4.809-1.178-9.148-1.34l-7.89-.296.257-6.241c.308-7.458-.346-9.901-3.034-11.34-1.579-.845-2.43-.703-3.932.656-1.579 1.429-1.917 3.118-1.917 9.58V121h-10v-14.929c0-12.238-.283-15.211-1.571-16.5-1.822-1.821-2.308-1.872-4.679-.491M139 153v5h3.378c3.91 0 5.914 1.911 5.449 5.195-.264 1.863-1.094 2.401-4.327 2.805l-4 .5v10h28v-10l-4-.5c-3.233-.404-4.063-.942-4.327-2.805-.465-3.284 1.539-5.195 5.449-5.195H168v-10h-29v5M34.035 173.934C31.653 178.385 33.725 185 37.5 185c2.304 0 4.5-2.995 4.5-6.137 0-4.301-1.68-6.863-4.5-6.863-1.379 0-2.877.837-3.465 1.934M139 190v5h29v-10h-29v5m-85.8-2.8c-.808.808-1.2 5.378-1.2 14V214h8v-12.8c0-13.044-.567-15.2-4-15.2-.88 0-2.14.54-2.8 1.2M.3 195c0 3.025.187 4.262.416 2.75.229-1.512.229-3.988 0-5.5S.3 191.975.3 195m33.758-2.57c-1.892 2.28-.894 8.62 1.619 10.279 1.956 1.292 2.387 1.227 4.25-.636 3.667-3.667 2.102-11.073-2.34-11.073-1.288 0-2.876.644-3.529 1.43m176.348-.044c-.293.762-.391 3.349-.219 5.75.286 3.983.566 4.393 3.204 4.694 1.643.188 3.256-.244 3.735-1 .986-1.554 1.142-6.968.267-9.248-.757-1.973-6.247-2.127-6.987-.196" fill="#1976D2" fill-rule="evenodd"/></svg>