<svg xmlns="http://www.w3.org/2000/svg" width="256" height="256"><path fill="#161931" fill-opacity=".016" fill-rule="evenodd" d="M0 128.004v128.004l128.25-.254 128.25-.254.254-127.75L257.008 0H0zm.485.496c0 70.4.119 99.053.265 63.672s.146-92.98 0-128S.485 58.1.485 128.5"/><path fill="#161931" fill-opacity=".227" fill-rule="evenodd" d="M21.355 1.447C16.533 3.545 10.423 9.568 8.096 14.518 6.008 18.961 6 19.406 6 127.123c0 79.996.306 109.167 1.176 112.07 1.575 5.257 7.753 12.084 13.293 14.687 4.504 2.117 4.637 2.12 107.27 2.098 116.277-.025 106.783.657 114.961-8.25 7.76-8.452 7.378-1.859 7.072-122.31L249.5 18.5l-2.211-4.134c-2.92-5.459-7.807-10.242-12.767-12.495C230.709.139 225.139.045 127.5.061 42.578.075 23.948.318 21.355 1.447"/><path fill="#161931" fill-opacity=".335" fill-rule="evenodd" d="M20.195 2.59c-2.859 1.425-6.535 4.212-8.169 6.194C5.719 16.436 6 10.876 6 128c0 120.029-.483 112.359 7.579 120.421 8.036 8.036 1.171 7.58 113.849 7.573 65.852-.003 101.346-.359 103.797-1.04 5.883-1.634 11.96-6.848 15.025-12.89l2.75-5.423-.01-108.57-.01-108.571-2.363-5C243.776 8.491 240.043 4.816 234 2.081 229.568.075 227.954.044 127.446.022L25.393 0zm172.036 55.677-2.268 3.233 4.698.891c4.543.862 4.798.779 7.72-2.491l3.021-3.382-3.951-.701c-6.267-1.113-6.823-.965-9.22 2.45M49 89v27h3.875c2.131 0 5.281-.281 7-.625 2.63-.526 3.125-1.08 3.125-3.5 0-1.581.45-2.875 1-2.875s1 1.35 1 3v3h13.272l-.57-4.25c-.314-2.338-1.123-13.475-1.798-24.75s-1.354-20.662-1.508-20.859c-.252-.322-21.056-2.991-24.146-3.098C49.28 62.01 49 68.044 49 89m96.25-26.263-5.25.368V111h8.418c11.622 0 11.582.026 11.582-7.607V97h-3.5c-3.333 0-3.5-.167-3.5-3.5s.167-3.5 3.5-3.5h3.5V78h-3.5c-3.222 0-3.5-.238-3.5-3s.278-3 3.5-3h3.5V62l-4.75.185c-2.613.102-7.113.35-10 .552m16.673-.382c-.042.355-.114 2.557-.159 4.895-.076 3.88.148 4.278 2.576 4.566l2.66.317V110h12V72h3c2.889 0 3-.167 3-4.5V63l-4.75-.007c-2.613-.004-7.787-.294-11.5-.645-3.713-.35-6.785-.347-6.827.007m-44.099 2.377-4.676.372-.572 6.198c-.315 3.409-1.139 14.185-1.83 23.948L109.488 113h3.631c1.997 0 5.037-.281 6.756-.625 2.63-.526 3.125-1.08 3.125-3.5 0-1.581.45-2.875 1-2.875s1 1.35 1 3v3h13.276l-.612-7.25c-.337-3.987-1.151-14.787-1.81-24L134.656 64l-6.078.18c-3.343.099-8.182.348-10.754.552M186 86.356V109h3.853c2.12 0 6.62-.289 10-.642l6.147-.643v-4.746c0-4.633-.084-4.762-3.5-5.403-3.096-.581-3.5-1.01-3.5-3.723 0-2.971.11-3.045 3.554-2.399l3.554.667-.304-5.246c-.289-4.989-.464-5.288-3.554-6.085-2.619-.675-3.25-1.342-3.25-3.439 0-2.416.251-2.562 3.5-2.035l3.5.568v-4.82c0-5.614-.059-5.646-12.25-6.683l-7.75-.659zM80 89.358V114l8.25-.08c4.537-.045 10.265-.607 12.727-1.25 5.729-1.497 7.23-4.181 6.741-12.054-.353-5.686-1.346-7.436-5.11-9.006-.635-.265-.052-1.315 1.369-2.461 2.16-1.744 2.525-2.965 2.858-9.544.368-7.289.278-7.646-2.65-10.574-2.463-2.462-3.862-3.031-7.461-3.031-2.437 0-7.197-.289-10.577-.642L80 64.715zm43-2.799c0 6.118.36 9.337 1 8.941.55-.34 1-4.641 1-9.559 0-5.294-.408-8.941-1-8.941-.597 0-1 3.853-1 9.559m-60.93.108c.074 9.226 1.13 14.257 2.364 11.254 1.167-2.839.181-19.222-1.184-19.674-.94-.311-1.233 1.775-1.18 8.42M93 83.5c0 1.925.45 3.5 1 3.5s1-1.575 1-3.5-.45-3.5-1-3.5-1 1.575-1 3.5m0 18.559c0 1.785.417 2.802 1 2.441.55-.34 1-1.716 1-3.059S94.55 99 94 99s-1 1.377-1 3.059m88.5 12.981c-6.6.379-12.338.75-12.75.824-.412.075-.75 4.416-.75 9.648v9.512l3.986-.638 3.986-.637.264 32.875.264 32.876 10.252.5 10.253.5-.003-32.75L197 135h9v-21l-6.25.175c-3.437.097-11.65.486-18.25.865m-41.705 1.041c-12.202 1.919-18.14 9.841-18.23 24.322-.074 11.769 2.55 16.669 11.935 22.289 11.137 6.669 11.5 7.012 11.5 10.855 0 2.403-.456 3.453-1.5 3.453-1.092 0-1.5-1.127-1.5-4.145v-4.144l-6.75.637c-3.713.351-8.437.641-10.5.645L121 170v4.557c0 10.645 4.603 18.995 12.429 22.55 4.952 2.249 17.118 2.539 21.853.522 7.782-3.316 11.102-10.407 11.061-23.629-.045-14.597-2.686-19.338-14.343-25.748-3.575-1.966-7.287-4.246-8.25-5.068-2.19-1.869-2.375-7.184-.25-7.184 1.048 0 1.5 1.056 1.5 3.5v3.5l6.75-.011c3.713-.006 8.482-.297 10.599-.647l3.849-.636-.349-7.681c-.296-6.52-.762-8.222-3.082-11.264-4.193-5.497-13.424-8.181-22.972-6.68M106 119.045c-5.775.391-12.862.765-15.75.832L85 120v74.813l9.25.568c5.088.312 12.513.744 16.5.959l7.25.393V178h-12v-10h12l.002-9.75.002-9.75-6.002.339-6.002.339v-10.079l6-.679 6-.678v-9.871c0-5.429-.338-9.796-.75-9.703s-5.475.487-11.25.877m-39.5 1.995c-6.6.379-13.237.75-14.75.824L49 122v70.721l5.25.631c2.888.347 7.612.635 10.5.639L70 194v-26h12v-18H70v-10h12v-10c0-8.924-.188-9.981-1.75-9.825-.963.097-7.15.486-13.75.865"/><path fill="#161931" fill-opacity=".806" fill-rule="evenodd" d="M24.994.934c-4.811 1.464-8.671 3.966-12.279 7.96-7.078 7.834-6.791 2.469-6.487 121.188L6.5 236.5l2.308 4.686c1.27 2.578 4.064 6.272 6.209 8.21 7.668 6.928 3.233 6.682 115.069 6.377L230.5 255.5l4-2.162c4.715-2.549 9.539-7.452 12.138-12.338 1.783-3.352 1.862-8.126 1.862-113V18.5l-3-5.427c-3.189-5.77-8.951-10.27-15.465-12.08C225.835-.174 28.822-.23 24.994.934m166.668 57.443c-1.417 1.857-2.295 3.657-1.952 4s-.352.623-1.543.623c-2.161 0-2.167.069-2.167 23.308v23.308l9.25-.375c5.088-.205 9.836-.564 10.553-.796.905-.294 1.21-2.027 1-5.684-.298-5.178-.358-5.269-3.803-5.761-2.724-.389-3.573-1.018-3.831-2.834-.303-2.141-.015-2.306 3.5-2.003l3.831.33v-5.407c0-5.29-.076-5.433-3.5-6.581-2.436-.816-3.602-1.871-3.837-3.469-.302-2.062-.049-2.224 2.482-1.589 1.55.389 3.276.785 3.836.88.589.1 1.019-2.147 1.019-5.327v-5.5l-8-1.124c-6.906-.971-7.349-1.142-3.236-1.25 4.02-.106 5.226-.634 7.721-3.376 1.626-1.788 2.97-3.587 2.986-4s-2.618-.75-5.852-.75c-5.506 0-6.046.216-8.457 3.377M49 88.697V116h14l.118-3.25.119-3.25.659 3 .659 3 6.473-.342c3.559-.188 6.65-.516 6.868-.729.388-.38-2.735-49.624-3.172-50.015-.123-.11-5.961-.835-12.974-1.61L49 61.394zm91.667-26.03c-.367.366-.667 11.67-.667 25.119v24.452l9.75-.71c5.363-.391 10.111-1.053 10.552-1.471s.665-3.639.5-7.159L160.5 96.5l-3.75.22c-3.538.208-3.75.053-3.75-2.738 0-2.684.376-3.018 4.044-3.605l4.044-.647-.294-6.115-.294-6.115-3.75.293c-3.384.265-3.75.057-3.75-2.133 0-2.764 2.065-3.625 8.75-3.646L166 72v18.941c0 10.418.338 19.103.75 19.301s3.563.185 7-.03l6.25-.39V71.783l2.5.628c2.412.605 2.5.454 2.5-4.267 0-4.681-.136-4.921-3.125-5.519-4.195-.839-40.364-.802-41.208.042m-20.337 1.245c-3.943.323-7.366.813-7.606 1.088s-.967 8.6-1.615 18.5-1.445 20.588-1.773 23.75l-.594 5.75H123l.118-3.25.119-3.25.659 3 .659 3 6.473-.346c3.559-.191 6.71-.493 7.001-.672.391-.242-1.362-28.451-2.967-47.732-.067-.805-3.398-.768-14.732.162M80 90v25l3.75-.054c2.063-.03 7.26-.422 11.549-.872 9.192-.964 12.116-3.017 13.105-9.2.634-3.962-.823-11.86-2.193-11.889-.391-.009-1.374-.435-2.185-.948-1.243-.786-1.099-1.33.917-3.477 3.116-3.316 3.94-11.51 1.699-16.876-2.153-5.152-6.19-6.684-17.61-6.684H80zm43.36-4c0 5.225.169 7.362.375 4.75s.206-6.888 0-9.5-.375-.475-.375 4.75m-59.995 2.5c.003 5.5.171 7.622.373 4.716.203-2.905.201-7.405-.004-10s-.371-.216-.369 5.284M93.232 84c0 1.925.206 2.713.457 1.75.252-.963.252-2.537 0-3.5-.251-.963-.457-.175-.457 1.75m-.037 17.5c.02 1.65.244 2.204.498 1.231s.237-2.323-.037-3-.481.119-.461 1.769m97.305 12.523c-6.6.388-14.588.767-17.75.841L167 115l-.086 7.75c-.06 5.383-.325 6.96-.87 5.164-2.998-9.892-15.796-15.225-28.735-11.972-10.491 2.637-15.38 9.567-16.108 22.832-.731 13.309 3.064 19.921 15.049 26.224 2.613 1.374 4.75 2.837 4.75 3.25 0 .414-3.937.759-8.75.767-4.812.009-9.364.405-10.115.881-1.017.644-1.268 2.796-.984 8.421.325 6.43.828 8.192 3.374 11.815 3.808 5.418 10.841 9.122 18.352 9.665 16.831 1.218 24.713-7.944 23.94-27.828-.316-8.15-.76-10.196-3.063-14.126-2.576-4.396-8.275-8.901-15.2-12.017l-2.945-1.325 2.945-.632c1.621-.348 6.434-.686 10.696-.751L167 143v-8h9v64.707l7.651.646c4.208.356 9.158.647 11 .647H198v-65.879l4.25.19 4.25.189v-11c0-10.303-.127-11.006-2-11.092-1.1-.05-7.4.227-14 .615M98 118.704c-4.675.164-9.513.531-10.75.816l-2.25.518V196l5.25.005c2.888.002 10.313.296 16.5.652l11.25.649v-20.581l-5.5.646-5.5.646v-4.383c0-4.11.195-4.423 3.125-5.009 1.719-.344 4.194-.625 5.5-.625 2.344 0 2.375-.133 2.375-10.14v-10.14l-5.5.568-5.5.567v-9.75l5.25-.303 5.25-.302.285-10.25.285-10.25-5.785.204zm-40.25 2.041-8.75.333V194l5.75.009c3.163.004 8.112.292 11 .639l5.25.631V169h11v-19H71v-10h11v-20l-7.75.206c-4.263.113-11.687.355-16.5.539M143 139.5c0 1.925.45 3.5 1 3.5s1-1.575 1-3.5-.45-3.5-1-3.5-1 1.575-1 3.5m.015 33.309c-.009 2.621.377 4.067.985 3.691 1.269-.784 1.269-4.537 0-6.5-.709-1.097-.973-.342-.985 2.809"/></svg>