<svg xmlns="http://www.w3.org/2000/svg" width="256" height="256"><path fill-opacity=".016" d="M0 128.004v128.004l128.25-.254 128.25-.254.254-127.75L257.008 0H0v128.004m.485.496c0 70.4.119 99.053.265 63.672.146-35.38.146-92.98 0-128C.604 29.153.485 58.1.485 128.5" fill="#1976D2" fill-rule="evenodd"/><path fill-opacity=".147" d="M186.822 21.324c-15.312 6.457-23.655 19.8-22.605 36.151.804 12.53 7.779 23.511 18.792 29.586l4.46 2.461 2.664 12.37c1.466 6.803 3.145 13.423 3.732 14.711 1.974 4.333 10.261 4.409 12.218.113.559-1.226 2.232-7.842 3.718-14.704l2.702-12.475 4.474-2.468c6.427-3.545 12.771-10.297 15.853-16.873 2.306-4.92 2.67-6.99 2.67-15.196s-.364-10.276-2.67-15.196c-3.422-7.301-10.4-14.257-17.634-17.58-8.34-3.832-20.508-4.218-28.374-.9m16.161 24.197c-.676.813-2.107 1.479-3.182 1.479-2.316 0-7.801 5.187-7.801 7.376 0 5.669 5.811 9.773 10.87 7.678 2.656-1.1 5.13-4.608 5.13-7.272 0-.619.666-1.86 1.48-2.76 1.307-1.444 1.301-1.89-.052-3.821-2.348-3.352-4.98-4.446-6.445-2.68M97.2 68.2c-.808.808-1.2 5.378-1.2 14V95h-6.8c-3.956 0-7.302.502-8 1.2-.752.752-1.2 4.489-1.2 10v8.8h-8.8c-5.511 0-9.248.448-10 1.2-.66.66-1.2 3.398-1.2 6.085v4.885l-5.131-4.085c-2.821-2.247-5.936-4.085-6.922-4.085-.985 0-6.664 3.947-12.619 8.772-11.345 9.19-13.202 12.041-9.391 14.421 1.195.746 2.062 2.344 2.061 3.798-.002 2.195-1.471 3.259-11.75 8.509-10.187 5.203-11.789 6.357-12.058 8.683-.218 1.89.299 3.008 1.75 3.785 1.46.781 2.06 2.093 2.06 4.504 0 3.082-.296 3.431-3.149 3.715-3.837.381-5.844 3.016-4.237 5.563 1.04 1.649 8.341 1.765 126.912 2.004 115.998.234 125.951.124 127.641-1.405 1.845-1.67 2.637-5.964.902-4.892-.512.317-1.213.118-1.559-.441-.345-.559-2.851-1.016-5.569-1.016H244v-3.759c0-2.715.573-4.118 2.063-5.048 3.726-2.327 1.981-5.246-7.429-12.427-4.877-3.721-9.654-6.766-10.615-6.766-.962 0-2.83.85-4.151 1.889l-2.402 1.89-9.955-7.97c-8.441-6.758-10.378-7.886-12.733-7.415-2.585.517-2.778.328-2.778-2.719 0-5.266-1.095-5.675-15.2-5.675H168v-6.8c0-3.956-.502-7.302-1.2-8-.825-.825-5.822-1.2-16-1.2H136v-6.8c0-3.956-.502-7.302-1.2-8-.697-.697-4.035-1.2-7.956-1.2h-6.756l-.294-7.145c-.226-5.504-.696-7.398-2.044-8.245-1.272-.8-2.228-.8-3.5 0-1.348.847-1.818 2.741-2.044 8.245L111.912 95H104V82.2c0-13.044-.567-15.2-4-15.2-.88 0-2.14.54-2.8 1.2M.158 179c0 1.375.227 1.938.504 1.25.278-.687.278-1.812 0-2.5-.277-.687-.504-.125-.504 1.25M37 219.5V236h3.441c1.893 0 3.743-.489 4.113-1.087.484-.783.976-.783 1.759 0 .598.598 2.952 1.087 5.232 1.087 4.974 0 6.962-1.849 8.275-7.696 2.471-10.994-4.335-20.31-11.886-16.269-1.793.96-1.934.668-1.934-4V203h-9v16.5m109.687-13.695c-3.434 3.584-3.379 4.195.383 4.195 2.622 0 11.93-5.109 11.93-6.548 0-.249-2.166-.452-4.813-.452-3.968 0-5.285.492-7.5 2.805m-134.204.445c-.25.688-2.289 7.026-4.533 14.086-2.243 7.06-4.323 13.473-4.621 14.25-.424 1.103.56 1.414 4.466 1.414 4.607 0 5.089-.229 6.002-2.846.878-2.521 1.473-2.846 5.203-2.846 3.73 0 4.325.325 5.203 2.846.913 2.617 1.395 2.846 6.002 2.846 3.586 0 4.878-.355 4.549-1.25-.253-.687-2.588-7.662-5.19-15.5L24.834 205h-5.948c-3.85 0-6.109.441-6.403 1.25M164 220.5V236h9v-11h9v-8h-4.5c-4.133 0-4.5-.204-4.5-2.5 0-2.333.333-2.5 5-2.5h5v-7h-19v15.5m-43.912-10.793c-.679 1.489-2.101 3.314-3.161 4.057-2.3 1.61-2.515 4.073-.427 4.874 1.074.413 1.5 2.092 1.5 5.922 0 9.62 2.233 11.888 11.08 11.256 4.158-.297 4.438-.505 4.728-3.498.286-2.946.062-3.206-3-3.5-3.185-.306-3.319-.495-3.613-5.068-.301-4.697-.27-4.75 2.75-4.75 2.825 0 3.055-.264 3.055-3.5 0-3.222-.238-3.5-3-3.5-2.533 0-3-.389-3-2.5 0-2.08-.477-2.5-2.839-2.5-2.117 0-3.154.689-4.073 2.707m118.351-.32c-.346 1.379-1.712 3.217-3.034 4.083-2.713 1.778-3.155 4.305-.905 5.168 1.042.4 1.5 2.026 1.5 5.32 0 6.478 1.697 10.928 4.43 11.614 1.227.308 4.219.417 6.65.244 4.179-.299 4.437-.493 4.733-3.566.29-3.007.092-3.25-2.653-3.25-2.848 0-2.981-.201-3.313-5.001-.338-4.872-.277-5 2.403-5 2.476.001 2.75-.347 2.75-3.499 0-3.04-.319-3.5-2.43-3.5-1.76 0-2.519-.621-2.75-2.25-.245-1.719-1.079-2.323-3.536-2.561-2.719-.263-3.313.076-3.845 2.198m-169.189 2.68c-3.388 1.032-3.993 2.677-2.208 6.011.822 1.537 1.441 1.734 2.934.935 2.333-1.249 7.024-1.333 7.024-.127 0 .488-1.993 1.186-4.43 1.551-8.459 1.269-12.157 7.425-8.013 13.34 1.963 2.803 9.757 3.154 12.614.568 1.702-1.54 1.829-1.54 1.829 0 0 1.225.91 1.655 3.5 1.655H86v-9.826c0-9.121-.175-9.99-2.438-12.116-2.797-2.628-9.267-3.528-14.312-1.991m27.065.397c-3.886 1.69-6.315 6.09-6.315 11.439C90 232.37 94.011 236 103.369 236c7.588 0 8.631-.57 8.631-4.714 0-2.93-.285-3.387-1.75-2.808-3.965 1.568-8.279 1.743-9.906.401-1.462-1.205-.739-1.442 5.742-1.879l7.414-.5-.282-4.376c-.374-5.795-1.686-8.004-5.766-9.709-4.192-1.751-7.027-1.739-11.137.049m46 0c-3.886 1.69-6.315 6.09-6.315 11.439 0 8.467 4.011 12.097 13.369 12.097 7.588 0 8.631-.57 8.631-4.714 0-2.93-.285-3.387-1.75-2.808-3.965 1.568-8.279 1.743-9.906.401-1.462-1.205-.739-1.442 5.742-1.879l7.414-.5-.282-4.376c-.374-5.795-1.686-8.004-5.766-9.709-4.192-1.751-7.027-1.739-11.137.049m49.006.149c-7.071 3.487-8.439 15.212-2.404 20.605 2.661 2.377 3.974 2.782 9.017 2.782 7.96 0 9.066-.55 9.066-4.513 0-3.289-.011-3.297-3.394-2.258-3.565 1.094-8.606.39-8.606-1.202 0-.515 3.037-1.069 6.75-1.231l6.75-.296.309-3.186c.435-4.492-2.312-9.208-6.343-10.893-4.345-1.815-7.173-1.766-11.145.192m25.709-.334c-1.358.688-3.158 2.481-4 3.985-1.371 2.451-1.371 3.022-.008 5.486.837 1.512 3.425 3.615 5.75 4.671 7.279 3.308 4.34 4.578-4.59 1.983-2.175-.631-2.299-.433-2 3.211l.318 3.885 7.252.294c6.603.267 7.475.07 9.75-2.205 4.509-4.509 2.972-9.217-4.286-13.123l-4.716-2.538 4.622.578c4.208.526 4.678.372 5.237-1.714.921-3.44.883-3.512-2.508-4.694-4.104-1.431-7.756-1.369-10.821.181m-199.723 6.222c-1.028 4.493-1.026 4.499 1.726 4.499 2.738 0 2.748-.026 1.595-3.934-1.647-5.575-2.155-5.661-3.321-.565m82.402.123c-1.387 1.387-.668 2.012 2.314 2.012 1.696 0 2.868-.468 2.671-1.068-.419-1.275-3.98-1.949-4.985-.944m46 0c-1.387 1.387-.668 2.012 2.314 2.012 1.696 0 2.868-.468 2.671-1.068-.419-1.275-3.98-1.949-4.985-.944M195 219.5c0 .933.944 1.5 2.5 1.5s2.5-.567 2.5-1.5-.944-1.5-2.5-1.5-2.5.567-2.5 1.5m-148.573.831c-.313.813-.424 2.984-.247 4.824.246 2.572.782 3.345 2.32 3.345 1.703 0 2-.667 2-4.486 0-3.481-.393-4.562-1.753-4.824-.964-.186-2.008.328-2.32 1.141m26.019 6.756c-.945 1.529 1.106 3.299 2.987 2.577.862-.331 1.567-1.29 1.567-2.133 0-1.747-3.535-2.092-4.554-.444" fill="#1976D2" fill-rule="evenodd"/><path fill-opacity=".276" d="M189.624 20.577c-8.207 2.621-16.201 8.952-20.877 16.533-5.458 8.849-5.968 22.19-1.251 32.702 3.006 6.698 10.737 14.846 16.211 17.084 3.644 1.49 4.045 2.464 7.443 18.104 2.403 11.064 4.726 15 8.85 15s6.447-3.936 8.85-15c3.482-16.024 3.686-16.487 8.191-18.519 5.32-2.399 12.487-10.24 15.779-17.263 2.25-4.8 2.679-7.082 2.675-14.218-.004-7.206-.434-9.43-2.824-14.61-7.424-16.091-26.79-25.005-43.047-19.813M203 45.5c-.685.825-2.335 1.5-3.668 1.5-3.453 0-7.332 4.233-7.332 8 0 4.111 3.889 8 8 8 3.767 0 8-3.879 8-7.332 0-1.333.675-2.983 1.5-3.668 2.063-1.712 1.894-2.697-.955-5.545-2.848-2.849-3.833-3.018-5.545-.955M97.2 68.2c-.808.808-1.2 5.378-1.2 14V95h-6.8c-3.956 0-7.302.502-8 1.2-.752.752-1.2 4.489-1.2 10v8.8h-8.878c-5.976 0-9.223.417-9.936 1.275-.582.702-1.199 3.448-1.372 6.103l-.314 4.828-5.143-4.103c-2.829-2.257-5.692-4.103-6.363-4.103-.671 0-6.345 4.091-12.607 9.09-11.73 9.365-13.285 11.708-9.387 14.142 1.151.719 1.991 2.315 1.979 3.759-.019 2.181-1.555 3.311-11.75 8.645-12.377 6.476-14.54 8.904-10.292 11.557 1.48.924 2.063 2.333 2.063 4.984 0 3.413-.241 3.72-3.149 4.01-3.837.381-5.844 3.016-4.237 5.563 1.04 1.649 8.341 1.765 126.912 2.004 115.998.234 125.951.124 127.641-1.405 1.845-1.67 2.637-5.964.902-4.892-.512.317-1.213.118-1.559-.441-.345-.559-2.851-1.016-5.569-1.016H244v-3.759c0-2.677.576-4.12 2-5.009 3.882-2.424 2.397-4.896-7.338-12.213-5.136-3.861-9.904-7.019-10.596-7.019-.691 0-2.513.895-4.049 1.988l-2.791 1.988-9.998-7.988c-10.135-8.098-11.876-8.94-14.028-6.788-.933.933-1.2.311-1.2-2.8 0-2.2-.54-4.54-1.2-5.2-.808-.808-5.378-1.2-14-1.2H168v-6.8c0-3.956-.502-7.302-1.2-8-.825-.825-5.822-1.2-16-1.2H136v-6.8c0-3.956-.502-7.302-1.2-8-.697-.697-4.035-1.2-7.956-1.2h-6.756l-.294-7.145c-.226-5.504-.696-7.398-2.044-8.245-1.272-.8-2.228-.8-3.5 0-1.348.847-1.818 2.741-2.044 8.245L111.912 95H104V82.2c0-13.044-.567-15.2-4-15.2-.88 0-2.14.54-2.8 1.2M88 106.974v3.974l15.142.276c13.149.24 15.288.506 16.245 2.026.804 1.275.804 2.225 0 3.5-.957 1.52-3.096 1.786-16.245 2.026L88 119.052v7.896l15.142.276c13.149.24 15.288.506 16.245 2.026.804 1.275.804 2.225 0 3.5-.957 1.52-3.096 1.786-16.245 2.026L88 135.052v7.896l15.142.276c13.149.24 15.288.506 16.245 2.026.804 1.275.804 2.225 0 3.5-.957 1.52-3.096 1.786-16.245 2.026L88 151.052v7.896l15.142.276c13.149.24 15.288.506 16.245 2.026.804 1.275.804 2.225 0 3.5-.957 1.52-3.096 1.786-16.245 2.026L88 167.052V175h40v-72H88v3.974m48 15.963c0 3.682.203 3.957 3.149 4.25 6.367.633 6.367 6.993 0 7.626-2.946.293-3.149.568-3.149 4.25V143h24v-3.937c0-3.682-.203-3.957-3.149-4.25-6.367-.633-6.367-6.993 0-7.626 2.946-.293 3.149-.568 3.149-4.25V119h-24v3.937m-68 5.408c0 4.075.475 5.775 2 7.155 2.261 2.046 2.575 4.525.8 6.3-2.225 2.225-4.517 1.226-13.3-5.8-4.813-3.85-9.17-7-9.683-7-.514 0-3.357 1.912-6.32 4.25l-5.385 4.25-.056 18.75L36 175h23.934l.283-11.143c.237-9.331.568-11.323 2.033-12.245 1.274-.802 2.226-.802 3.5 0 1.465.922 1.796 2.914 2.033 12.245L68.066 175H80v-52H68v5.345M168 155v20h12v-7.759c0-6.677-.279-7.934-2-9.009-3.459-2.16-2.367-4.883 3.992-9.954 5.628-4.488 5.992-5.036 6-9.028L188 135h-20v20M45.058 140.43c-1.702 2.051-.913 8.645 1.192 9.964 2.716 1.701 5.195-.444 5.565-4.815C52.16 141.495 50.714 139 48 139c-.965 0-2.289.644-2.942 1.43m148.192 9.184L188 154.18V175h24V154.243l-5.409-4.622c-2.976-2.541-6.013-4.61-6.75-4.597-.738.014-3.704 2.079-6.591 4.59M136 155v4h24v-8h-24v4m-90.942 1.43c-1.702 2.051-.913 8.645 1.192 9.964 2.716 1.701 5.195-.444 5.565-4.815C52.16 157.495 50.714 155 48 155c-.965 0-2.289.644-2.942 1.43m152 0c-1.702 2.051-.913 8.645 1.192 9.964 2.716 1.701 5.195-.444 5.565-4.815.345-4.084-1.101-6.579-3.815-6.579-.965 0-2.289.644-2.942 1.43M21.75 161.064L16 164.032l.189 5.734.189 5.734.357-5.6.356-5.601 5.02-2.351c2.761-1.293 5.242-2.711 5.514-3.15.684-1.106.585-1.068-5.875 2.266m202.122-1.314c-1.243 1.586-1.208 1.621.378.378 1.666-1.307 2.195-2.128 1.372-2.128-.207 0-.995.787-1.75 1.75m6.128-1.372c0 .207.787.995 1.75 1.75 1.586 1.243 1.621 1.208.378-.378-1.307-1.666-2.128-2.195-2.128-1.372M136 171v4h24v-8h-24v4M.158 179c0 1.375.227 1.938.504 1.25.278-.687.278-1.812 0-2.5-.277-.687-.504-.125-.504 1.25M37 219.443V236h3.441c1.893 0 3.72-.451 4.061-1.003.414-.67 1.241-.67 2.493 0 2.179 1.167 7.031 1.301 8.563.238 2.82-1.959 4.442-5.978 4.442-11.007 0-5.705-1.916-10.598-4.545-11.607-2.504-.961-7.267-.734-7.955.379-1.341 2.169-2 .769-2-4.248V203.5l-4.25-.307-4.25-.308v16.558M146.568 206.5l-2.67 3.5h3.138c2.571 0 11.964-5.236 11.964-6.67 0-.181-2.197-.33-4.881-.33-4.404 0-5.143.343-7.551 3.5M8.42 219.75c-2.558 8.113-4.851 15.088-5.095 15.5-.244.412 1.798.75 4.537.75 4.719 0 5.013-.157 5.638-3 .621-2.829.934-3 5.5-3s4.879.171 5.5 3c.611 2.782.981 3 5.079 3 2.8 0 4.421-.445 4.421-1.214 0-.667-2.126-7.642-4.724-15.5L24.552 205h-11.48L8.42 219.75m155.58.75V236h7.9l.3-5.678.3-5.677 4.5-.073c4.462-.071 4.5-.101 4.5-3.572 0-3.466-.046-3.503-4.75-3.805-4.289-.275-4.75-.542-4.75-2.75 0-2.267.363-2.445 5-2.445h5v-7h-18v15.5m-43.855-10.487c-.577 1.657-1.746 3.281-2.598 3.607-1.979.76-2.011 3.988-.047 4.742 1.132.434 1.5 2.262 1.5 7.452 0 8.699 1.513 10.449 8.644 9.995 4.673-.297 4.868-.431 5.169-3.559.293-3.038.111-3.25-2.802-3.25h-3.116l.303-5.25c.282-4.897.487-5.271 3.052-5.566 2.303-.265 2.75-.794 2.75-3.25 0-2.593-.348-2.934-3-2.934-2.533 0-3-.389-3-2.5 0-2.092-.473-2.5-2.902-2.5-2.329 0-3.11.596-3.953 3.013m117.988.487c-1.136 1.925-2.531 3.5-3.099 3.5-1.612 0-1.214 3.717.466 4.362 1.132.434 1.5 2.262 1.5 7.452 0 8.699 1.513 10.449 8.644 9.995 4.673-.297 4.868-.431 5.169-3.559.293-3.038.111-3.25-2.802-3.25h-3.116l.303-5.25c.282-4.897.487-5.271 3.052-5.566 2.303-.265 2.75-.794 2.75-3.25 0-2.593-.348-2.934-3-2.934-2.533 0-3-.389-3-2.5 0-4.015-4.276-3.392-6.867 1m-18.994 1.581c-4.44.94-6.466 3.121-6.36 6.845.118 4.158.798 4.999 5.85 7.234 5.447 2.41 5.775 4.3.621 3.579-2.062-.289-4.42-.686-5.239-.882-1.119-.268-1.405.388-1.149 2.643.186 1.65.545 3.338.798 3.75.252.412 3.356.75 6.899.75 7.498 0 10.441-1.992 10.441-7.066 0-4.494-1.448-6.496-6.022-8.326-4.788-1.916-4.561-3.925.285-2.528 2.615.753 3.477.606 4.487-.765 2.571-3.492 1.617-4.436-5.75-5.691-.825-.14-3.012.065-4.861.457m-151.389.608c-2.001.523-2.185 1.629-.727 4.354.86 1.606 1.74 1.814 5.5 1.299 3.728-.511 4.477-.34 4.477 1.022 0 1.275-1.004 1.636-4.545 1.636-7.382 0-11.388 5.459-8.305 11.316.632 1.201 1.645 2.515 2.25 2.919 1.894 1.264 8.059.832 10.276-.721 1.876-1.314 2.187-1.314 2.691 0 .331.862 1.843 1.486 3.602 1.486H86v-9.545c0-8.802-.191-9.737-2.455-12-2.078-2.079-3.342-2.437-8.25-2.339-3.187.064-6.582.322-7.545.573m25.911 1.923c-4.984 4.984-4.758 14.446.45 18.828 2.456 2.066 4.101 2.56 8.531 2.56 6.752 0 9.358-1.273 9.358-4.57 0-2.42-.157-2.478-4.993-1.836-3.4.45-5.475.263-6.5-.588C97.713 226.687 98.969 226 106 226h7v-4.077c0-3.173-.648-4.725-2.923-7-2.514-2.514-3.684-2.923-8.364-2.923-4.532 0-5.876.436-8.052 2.612m46 0c-4.984 4.984-4.758 14.446.45 18.828 2.456 2.066 4.101 2.56 8.531 2.56 6.752 0 9.358-1.273 9.358-4.57 0-2.42-.157-2.478-4.993-1.836-3.4.45-5.475.263-6.5-.588-2.794-2.319-1.538-3.006 5.493-3.006h7v-4.077c0-3.173-.648-4.725-2.923-7-2.514-2.514-3.684-2.923-8.364-2.923-4.532 0-5.876.436-8.052 2.612m49.998-.558c-5.192 4.084-5.556 15.014-.648 19.456 2.185 1.978 11.09 3.183 15.443 2.091 2.004-.503 2.546-1.263 2.546-3.573 0-2.931-.004-2.933-4.982-2.344-3.323.394-5.488.171-6.5-.669-2.838-2.355-1.529-3.015 5.982-3.015 6.478 0 7.499-.238 7.494-1.75-.012-3.798-2.184-9.269-4.255-10.721-3.29-2.303-11.864-2.005-15.08.525M17.551 216.58c-.368 1.959-.915 4.205-1.217 4.991-.405 1.056.291 1.429 2.666 1.429 2.652 0 3.096-.306 2.537-1.75-.372-.963-.929-2.997-1.236-4.521-.83-4.113-1.994-4.176-2.75-.149m83.139 1.574C98.062 219.625 98.695 221 102 221c1.898 0 3-.512 3-1.393 0-1.868-2.227-2.619-4.31-1.453m46 0c-2.628 1.471-1.995 2.846 1.31 2.846 1.898 0 3-.512 3-1.393 0-1.868-2.227-2.619-4.31-1.453m49.034-.02c-2.792 1.563-1.984 2.866 1.776 2.866 3.775 0 4.583-1.35 1.724-2.88-1.126-.603-2.406-.598-3.5.014m-148.539.731c-2.039 1.292-1.16 9.528 1.062 9.949 2.267.43 3.878-3.7 2.887-7.404-.821-3.071-1.96-3.805-3.949-2.545m27.065 7.224c-1.237.466-2.25 1.536-2.25 2.379 0 1.967 3.875 2.022 4.626.065.931-2.428.034-3.35-2.376-2.444" fill="#1976D2" fill-rule="evenodd"/><path fill-opacity=".987" d="M193.732 20.027c-10.434 1.778-20.999 9.677-25.559 19.109-8.068 16.688-2.013 37.293 13.537 46.07 3.006 1.696 5.855 4.031 6.331 5.189.476 1.158 2.031 7.505 3.455 14.105 2.718 12.599 3.832 14.5 8.504 14.5s5.786-1.901 8.504-14.5c3.296-15.276 3.619-15.992 8.191-18.148 5.288-2.493 12.43-9.914 15.164-15.756 12.36-26.403-9.535-55.442-38.127-50.569m-1.79 7.862C180.629 31.584 172 43.037 172 54.356c0 10.754 5.747 20.227 15.67 25.827 6.37 3.595 7.454 5.474 9.841 17.067.991 4.813 2.12 8.75 2.508 8.75.389 0 1.489-3.934 2.443-8.741 2.199-11.07 3.612-13.746 8.604-16.293 5.596-2.855 11.676-8.574 14.244-13.398 2.923-5.49 3.103-19.309.321-24.568-2.611-4.937-8.433-10.807-13.131-13.243-4.368-2.264-16.087-3.329-20.558-1.868m1.02 13.361C188.159 43.672 184 50.053 184 55c0 1.417 1.012 4.584 2.25 7.038C188.672 66.841 195.053 71 200 71c4.947 0 11.328-4.159 13.75-8.962 1.238-2.454 2.25-5.234 2.25-6.178 0-1.795-2.523-4.86-4-4.86-1.654 0-4 3.165-4 5.397 0 5.915-9.523 8.869-13.826 4.289C189.777 56.005 192.783 47 198.743 47c2.117 0 5.257-2.389 5.257-4 0-1.477-3.065-4-4.86-4-.944 0-3.724 1.013-6.178 2.25M97.571 68.571c-1.26 1.26-1.571 4.035-1.571 14V95h-6.429C80.77 95 80 95.923 80 106.472v8.329l-9.037.35c-10.361.4-10.924.822-10.948 8.192L60 128.186l-4.75-3.925c-2.612-2.159-5.517-4.204-6.455-4.544-1.185-.431-5.001 2.018-12.5 8.021-13.693 10.96-13.749 11.037-10.295 13.994 1.106.947 2 2.95 2 4.481 0 2.501-.943 3.242-9.75 7.663-12.929 6.49-14.876 8.086-13.348 10.941.643 1.201 1.603 2.183 2.133 2.183.531 0 .965 1.75.965 3.889 0 3.631-.225 3.931-3.403 4.527-1.872.351-3.672 1.338-4 2.193-.801 2.086-.816 2.03.974 3.82C2.983 182.84 15.78 183 127.49 183c68.39 0 125.058-.273 125.928-.607 2.216-.85 1.98-5.11-.352-6.358-1.064-.569-3.539-1.035-5.5-1.035-3.459 0-3.566-.114-3.566-3.778 0-2.54.655-4.338 2-5.49 3.398-2.91 3.068-3.405-7.691-11.539-8.351-6.314-11.977-7.503-14.309-4.693-.685.825-1.701 1.5-2.258 1.5-.557 0-5.266-3.42-10.464-7.601-7.9-6.355-9.928-7.531-12.364-7.173-2.712.398-2.914.201-2.914-2.842 0-5.386-2.537-6.384-16.223-6.384H168v-6c0-9.507-.887-10-18-10h-14v-6c0-8.174-1.826-10-10-10h-6v-5.777c0-5.5-1.841-10.223-3.985-10.223-2.58 0-4.015 3.421-4.015 9.571V95h-8V83.223c0-9.042-.362-12.294-1.557-14-1.845-2.635-2.765-2.758-4.872-.652M88 107v4h14.429c11.783 0 14.716.288 16 1.571 1.973 1.974 1.973 2.884 0 4.858-1.284 1.283-4.217 1.571-16 1.571H88v8h14.429c11.783 0 14.716.288 16 1.571.864.865 1.571 1.958 1.571 2.429 0 .471-.707 1.564-1.571 2.429-1.284 1.283-4.217 1.571-16 1.571H88v8h14.429c11.783 0 14.716.288 16 1.571 1.973 1.974 1.973 2.884 0 4.858-1.284 1.283-4.217 1.571-16 1.571H88v8h14.429c11.783 0 14.716.288 16 1.571 1.973 1.974 1.973 2.884 0 4.858-1.284 1.283-4.217 1.571-16 1.571H88v8h40v-72H88v4m48 16c0 3.569.262 4 2.429 4 2.374 0 5.571 2.295 5.571 4s-3.197 4-5.571 4c-2.167 0-2.429.431-2.429 4v4h24v-4c0-3.569-.262-4-2.429-4-2.374 0-5.571-2.295-5.571-4s3.197-4 5.571-4c2.167 0 2.429-.431 2.429-4v-4h-24v4m-68 5.778c0 4.54.428 6.144 2 7.49 1.1.942 2 2.135 2 2.651 0 1.17-2.847 4.081-3.992 4.081-.468 0-5.186-3.424-10.485-7.61l-9.636-7.61-5.693 4.492-5.694 4.492-.272 19.118L35.957 175H60v-10.429c0-8.147.344-10.772 1.571-12C62.436 151.707 63.529 151 64 151c.471 0 1.564.707 2.429 1.571 1.227 1.228 1.571 3.853 1.571 12V175h12v-52H68v5.778M168 155v20h12v-7.778c0-6.54-.318-8.05-2-9.49-3.175-2.718-2.894-3.285 4.75-9.589 4.884-4.028 5.25-4.636 5.25-8.736V135h-20v20M45.571 140.571C42.696 143.447 44.455 151 48 151c1.819 0 4-3.271 4-6s-2.181-6-4-6c-.471 0-1.564.707-2.429 1.571m148.179 8.128l-5.75 4.609V175h24v-21.705l-5.916-4.647c-3.253-2.557-6.066-4.628-6.25-4.603-.183.024-2.922 2.119-6.084 4.654M136 155v4h24v-8h-24v4m-90.429 1.571C42.696 159.447 44.455 167 48 167c1.798 0 4-3.257 4-5.916 0-1.526-.823-3.519-1.829-4.429-2.256-2.042-2.634-2.049-4.6-.084m152 0C194.696 159.447 196.455 167 200 167c1.819 0 4-3.271 4-6s-2.181-6-4-6c-.471 0-1.564.707-2.429 1.571m26.205 2.216c-3.658 2.664-3.725 2.835-3.75 9.463L220 175h16l-.021-6.75c-.022-6.696-.053-6.772-3.91-9.5-2.139-1.512-4.042-2.733-4.229-2.713-.187.02-2.016 1.258-4.064 2.75M21.25 160.768L16 163.414V175h12v-8.5c0-4.675-.337-8.473-.75-8.439-.413.033-3.112 1.251-6 2.707M136 171v4h24v-8h-24v4m-98.559 33.294c-.273.712-.372 8.024-.219 16.25.275 14.813.3 14.959 2.61 15.286 1.283.182 3.131-.392 4.107-1.275 1.587-1.436 1.908-1.444 3.04-.08 1.617 1.948 5.956 1.959 8.722.022 4.841-3.391 5.512-15.513 1.117-20.19-2.51-2.672-6.416-2.977-9.595-.75L45 215.113V203h-3.531c-1.967 0-3.752.573-4.028 1.294m110.246 1.511c-3.286 3.43-3.356 4.195-.384 4.195 1.967 0 10.697-5.376 10.697-6.587 0-.227-1.716-.413-3.813-.413-2.872 0-4.476.692-6.5 2.805m-134.48.895C12.241 208.598 4 234.341 4 235.462c0 .359 1.895.515 4.21.345 3.553-.259 4.301-.698 4.791-2.807.513-2.209 1.173-2.535 5.675-2.798 4.884-.286 5.139-.172 6.157 2.75.949 2.721 1.498 3.048 5.115 3.048 2.229 0 4.052-.349 4.052-.776 0-.427-2.175-7.29-4.833-15.25L24.334 205.5l-5.105-.3c-4.102-.241-5.285.053-6.022 1.5m151.232-.402c-.274.714-.372 7.577-.219 15.25l.28 13.952 3.75.31 3.75.311V224h4.5c4.333 0 4.5-.111 4.5-3s-.167-3-4.5-3-4.5-.111-4.5-3c0-2.933.111-3 5-3h5v-7h-8.531c-6.072 0-8.675.374-9.03 1.298m-43.897 3.57c-.326 1.028-1.482 2.672-2.568 3.655-2.337 2.116-2.588 4.477-.474 4.477 1.19 0 1.5 1.444 1.5 7 0 8.283 1.832 11 7.418 11 5.073 0 6.582-.893 6.582-3.896 0-2.27-.424-2.677-2.75-2.643-2.652.038-2.761-.167-3.05-5.711l-.3-5.75h3.117c2.809 0 3.085-.271 2.799-2.75-.248-2.16-.906-2.818-3.066-3.066-1.943-.224-2.75-.884-2.75-2.25 0-2.694-5.606-2.751-6.458-.066M239 209.507c0 .828-1.125 2.484-2.5 3.68-2.791 2.427-3.287 4.813-1 4.813 1.19 0 1.5 1.444 1.5 7 0 8.283 1.832 11 7.418 11 5.073 0 6.582-.893 6.582-3.896 0-2.27-.424-2.677-2.75-2.643-2.652.038-2.761-.167-3.05-5.711l-.3-5.75h3.05c2.722 0 3.05-.322 3.05-3 0-2.667-.333-3-3-3-2.333 0-3-.444-3-2s-.667-2-3-2c-2.006 0-3 .499-3 1.507m-221.362 5.181c-.35 2.096-.915 4.824-1.254 6.062-.544 1.984-.249 2.25 2.499 2.25 3.577 0 3.466.327 1.981-5.807-1.534-6.339-2.464-7.061-3.226-2.505m50.568-1.641c-2.011.808-2.148 1.2-1.114 3.187.648 1.246 1.27 2.381 1.381 2.521.112.139 1.635-.245 3.386-.856 2.416-.842 3.539-.813 4.662.118 2.454 2.037 1.719 2.706-3.531 3.21-6.409.616-8.99 2.875-8.99 7.871 0 6.183 6.501 9.041 11.924 5.242 2.216-1.552 2.452-1.546 3.642.081.746 1.02 2.235 1.603 3.603 1.409 2.152-.305 2.355-.869 2.648-7.33.401-8.876-.999-13.806-4.355-15.335-3.001-1.367-9.987-1.429-13.256-.118m26.453 1.007c-5.885 4.628-5.512 16.236.642 19.988 3.16 1.927 9.045 2.508 13.449 1.328 1.611-.432 2.25-1.352 2.251-3.237.002-2.562-.145-2.624-5.417-2.295-4.665.291-5.575.047-6.537-1.75-1.087-2.031-.913-2.088 6.418-2.088H113v-3.05c0-4.215-2.603-8.848-5.613-9.993-4.242-1.613-9.904-1.125-12.728 1.097m46 0c-5.885 4.628-5.512 16.236.642 19.988 3.16 1.927 9.045 2.508 13.449 1.328 1.611-.432 2.25-1.352 2.251-3.237.002-2.562-.145-2.624-5.417-2.295-4.665.291-5.575.047-6.537-1.75-1.087-2.031-.913-2.088 6.418-2.088H159v-3.05c0-4.215-2.603-8.848-5.613-9.993-4.242-1.613-9.904-1.125-12.728 1.097m50.451-.658c-3.398 1.883-5.034 5.376-5.075 10.838-.05 6.777 3.679 10.846 10.524 11.482 6.418.597 10.441-.926 10.441-3.951 0-2.136-.405-2.284-6.226-2.275-5.135.008-6.286-.297-6.573-1.74-.305-1.534.523-1.75 6.726-1.75H208v-4.077c0-5.868-4.186-9.937-10.173-9.888-2.38.02-5.402.632-6.717 1.361m25.39-.201c-2.716 1.54-3.467 2.828-3.485 5.982-.016 2.899 2.816 5.682 7.944 7.806 4.897 2.028 3.693 3.364-2.459 2.729-5.497-.567-5.5-.566-5.5 2.244 0 3.172 1.786 4.008 8.615 4.03 5.569.019 9.385-2.991 9.385-7.404 0-3.746-1.874-5.796-7.418-8.112-2.811-1.175-3.548-1.904-2.738-2.714.792-.792 2.079-.808 4.528-.057 3.133.962 3.513.848 4.516-1.352.97-2.129.803-2.514-1.462-3.375-3.406-1.295-9.448-1.182-11.926.223m-116.25 4.467C97.504 218.77 99.007 221 102.5 221c3.664 0 4.312-.788 2.3-2.8-1.25-1.25-2.437-1.391-4.55-.538m45.417.005c-1.781 1.78-.461 3.333 2.833 3.333 3.664 0 4.312-.788 2.3-2.8-1.307-1.307-4.072-1.595-5.133-.533m49.533.533c-2.012 2.012-1.364 2.8 2.3 2.8 1.925 0 3.5-.36 3.5-.8 0-1.168-2.223-3.2-3.5-3.2-.605 0-1.64.54-2.3 1.2m-149.165 1.734C43.993 223.75 45.523 230 48.5 230c1.87 0 3.5-3.137 3.5-6.734 0-4.882-3.954-7.09-5.965-3.332m27.117 5.951c-1.543.978-1.214 4.262.482 4.827 1.436.478 4.366-2.396 4.366-4.283 0-1.575-2.737-1.882-4.848-.544" fill="#1976D2" fill-rule="evenodd"/></svg>